<svg width="198" height="38" viewBox="0 0 198 38" fill="none" xmlns="http://www.w3.org/2000/svg">
<path d="M17.75 30.6777C17.75 30.9544 17.6361 31.223 17.4082 31.4834C17.1966 31.7438 16.9362 31.9961 16.627 32.2402C16.3177 32.4844 16.0003 32.7122 15.6748 32.9238C15.3493 33.1191 15.0807 33.2819 14.8691 33.4121C14.3158 33.7702 13.7624 34.1038 13.209 34.4131C12.6719 34.7223 12.1104 34.9909 11.5244 35.2188C10.9548 35.4466 10.3607 35.6257 9.74219 35.7559C9.13997 35.8861 8.50521 35.9512 7.83789 35.9512L7.44727 36C6.91016 36 6.37305 35.943 5.83594 35.8291C5.3151 35.6989 4.82682 35.5117 4.37109 35.2676C3.91536 35.0072 3.50846 34.6816 3.15039 34.291C2.79232 33.9004 2.51562 33.4284 2.32031 32.875C2.17383 32.4355 2.0599 31.9147 1.97852 31.3125C1.89714 30.7103 1.83203 30.0837 1.7832 29.4326C1.75065 28.7816 1.7181 28.1468 1.68555 27.5283C1.66927 26.8936 1.65299 26.332 1.63672 25.8438C1.39258 20.8633 1.19727 15.8828 1.05078 10.9023C1.01823 10.3327 0.993815 9.76302 0.977539 9.19336C0.961263 8.6237 0.953125 8.05404 0.953125 7.48438C0.953125 6.50781 1.01009 5.67773 1.12402 4.99414C1.23796 4.31055 1.46582 3.74902 1.80762 3.30957C2.14941 2.87012 2.6377 2.55273 3.27246 2.35742C3.9235 2.16211 4.77799 2.06445 5.83594 2.06445C6.89388 2.06445 7.95182 2.07259 9.00977 2.08887C10.084 2.10514 11.1582 2.11328 12.2324 2.11328C12.5579 2.11328 12.8835 2.10514 13.209 2.08887C13.5345 2.05632 13.86 2.08073 14.1855 2.16211C14.3809 2.19466 14.5518 2.25163 14.6982 2.33301C14.8447 2.39811 14.918 2.55273 14.918 2.79688C14.918 3.38281 14.7227 3.82227 14.332 4.11523C13.9414 4.39193 13.4775 4.5791 12.9404 4.67676C12.4033 4.77441 11.8418 4.82324 11.2559 4.82324C10.6862 4.80697 10.2142 4.79883 9.83984 4.79883H6.66602C6.34049 4.79883 6.01497 4.79883 5.68945 4.79883C5.36393 4.79883 5.03841 4.8151 4.71289 4.84766C4.61523 5.0918 4.55013 5.34408 4.51758 5.60449C4.48503 5.86491 4.46875 6.13346 4.46875 6.41016C4.46875 8.18424 4.50944 9.93392 4.59082 11.6592C4.68848 13.3844 4.77799 15.1341 4.85938 16.9082C5.86849 16.8268 6.86947 16.7292 7.8623 16.6152C8.85514 16.5013 9.85612 16.3711 10.8652 16.2246C11.0117 16.2246 11.1419 16.2165 11.2559 16.2002C11.3861 16.1839 11.5163 16.1758 11.6465 16.1758C11.9883 16.1758 12.2243 16.2653 12.3545 16.4443C12.501 16.6234 12.5742 16.8757 12.5742 17.2012C12.5742 17.429 12.5579 17.6406 12.5254 17.8359C12.5091 18.0312 12.4603 18.2266 12.3789 18.4219C12.265 18.7474 12.0778 18.9834 11.8174 19.1299C11.557 19.2764 11.264 19.3822 10.9385 19.4473C10.613 19.4961 10.2712 19.5205 9.91309 19.5205C9.57129 19.5205 9.27018 19.5286 9.00977 19.5449C8.32617 19.5775 7.65072 19.6019 6.9834 19.6182C6.33236 19.6344 5.67318 19.6589 5.00586 19.6914C5.02214 20.0332 5.04655 20.5459 5.0791 21.2295C5.11165 21.9131 5.14421 22.6862 5.17676 23.5488C5.22559 24.3952 5.27441 25.2741 5.32324 26.1855C5.38835 27.097 5.45345 27.9596 5.51855 28.7734C5.58366 29.571 5.6569 30.2708 5.73828 30.873C5.81966 31.4753 5.90104 31.8822 5.98242 32.0938C6.16146 32.4355 6.36491 32.6634 6.59277 32.7773C6.82064 32.875 7.12174 32.9238 7.49609 32.9238C8.09831 32.9238 8.73307 32.8099 9.40039 32.582C10.0677 32.3379 10.7188 32.0368 11.3535 31.6787C11.9883 31.3044 12.5905 30.8975 13.1602 30.458C13.7461 30.0186 14.2507 29.5872 14.6738 29.1641C14.8529 29.0176 15.0319 28.8711 15.2109 28.7246C15.39 28.5618 15.6016 28.4805 15.8457 28.4805C16.0898 28.4805 16.3258 28.5537 16.5537 28.7002C16.7816 28.8467 16.985 29.0339 17.1641 29.2617C17.3431 29.4733 17.4814 29.7093 17.5791 29.9697C17.693 30.2301 17.75 30.4661 17.75 30.6777ZM27.7109 5.65332C27.7109 5.83236 27.6296 5.98698 27.4668 6.11719C27.3203 6.23112 27.1413 6.32878 26.9297 6.41016C26.7181 6.47526 26.5065 6.52409 26.2949 6.55664C26.0833 6.58919 25.9206 6.60547 25.8066 6.60547C25.4323 6.60547 25.0824 6.5485 24.7568 6.43457C24.4313 6.30436 24.0814 6.23112 23.707 6.21484C23.1699 6.36133 22.6898 6.68685 22.2666 7.19141C21.8434 7.69596 21.5098 8.42839 21.2656 9.38867C21.0215 10.349 20.8831 11.5534 20.8506 13.002C20.818 14.4505 20.9238 16.2002 21.168 18.251C22.1934 18.0394 23.1455 17.8604 24.0244 17.7139C24.9196 17.5511 25.6113 17.4697 26.0996 17.4697C26.4902 17.4697 26.7588 17.5755 26.9053 17.7871C27.0518 17.9987 27.125 18.2673 27.125 18.5928C27.125 18.9183 27.0924 19.2194 27.0273 19.4961C26.9622 19.7728 26.7913 20.0007 26.5146 20.1797L21.4121 20.9609C21.4935 21.6445 21.5586 22.3363 21.6074 23.0361C21.6725 23.7197 21.7376 24.3952 21.8027 25.0625C22.0632 27.1784 22.2829 28.9118 22.4619 30.2627C22.6572 31.6136 22.8118 32.696 22.9258 33.5098C23.056 34.3073 23.1536 34.8851 23.2188 35.2432C23.3001 35.585 23.3571 35.821 23.3896 35.9512C23.4222 36.0651 23.4385 36.1139 23.4385 36.0977C23.4548 36.0814 23.4629 36.0977 23.4629 36.1465C23.4629 36.4883 23.3571 36.7243 23.1455 36.8545C22.9339 37.001 22.6816 37.0742 22.3887 37.0742C22.1608 37.0742 21.9167 37.0498 21.6562 37.001C21.4121 36.9684 21.168 36.9115 20.9238 36.8301C20.6797 36.7487 20.46 36.6348 20.2646 36.4883C20.0693 36.3418 19.931 36.1628 19.8496 35.9512C19.7194 34.8444 19.5648 33.7865 19.3857 32.7773C19.2067 31.7682 19.0521 30.7184 18.9219 29.6279C18.7917 28.3421 18.6452 26.9749 18.4824 25.5264C18.3359 24.0778 18.2139 22.6943 18.1162 21.376C18.0511 21.3923 17.986 21.4004 17.9209 21.4004C17.8558 21.3841 17.7826 21.376 17.7012 21.376C17.4408 21.376 17.221 21.319 17.042 21.2051C16.8792 21.0749 16.7979 20.847 16.7979 20.5215C16.7979 20.1471 16.8874 19.8053 17.0664 19.4961C17.2617 19.1868 17.5465 18.9834 17.9209 18.8857C17.8721 17.9906 17.8151 16.9977 17.75 15.9072C17.6849 14.8167 17.6605 13.71 17.6768 12.5869C17.693 11.4476 17.7826 10.349 17.9453 9.29102C18.1243 8.2168 18.4336 7.27279 18.873 6.45898C19.3125 5.62891 19.9147 4.96159 20.6797 4.45703C21.4447 3.95247 22.4294 3.7002 23.6338 3.7002C23.8779 3.7002 24.2197 3.74089 24.6592 3.82227C25.1149 3.90365 25.5706 4.03385 26.0264 4.21289C26.4821 4.37565 26.8727 4.5791 27.1982 4.82324C27.54 5.06738 27.7109 5.34408 27.7109 5.65332ZM36.9883 31.5322C36.9883 32.0205 36.8499 32.5251 36.5732 33.0459C36.3128 33.5667 35.971 34.0469 35.5479 34.4863C35.1247 34.9095 34.6364 35.2594 34.083 35.5361C33.5459 35.8128 33.0088 35.9512 32.4717 35.9512C31.7067 35.9512 31.0475 35.8047 30.4941 35.5117C29.9408 35.2025 29.4606 34.7956 29.0537 34.291C28.6468 33.7702 28.3132 33.1842 28.0527 32.5332C27.8086 31.8822 27.6133 31.2148 27.4668 30.5312C27.3203 29.8314 27.2145 29.1396 27.1494 28.4561C27.1006 27.7562 27.0762 27.1214 27.0762 26.5518C27.0762 26.0635 27.1006 25.4857 27.1494 24.8184C27.2145 24.151 27.3122 23.4593 27.4424 22.7432C27.5889 22.027 27.7842 21.319 28.0283 20.6191C28.2725 19.9193 28.5736 19.2926 28.9316 18.7393C29.306 18.1859 29.7454 17.7383 30.25 17.3965C30.7708 17.0547 31.3649 16.8838 32.0322 16.8838C32.5531 16.8838 33.0169 16.9896 33.4238 17.2012C33.847 17.4128 34.1969 17.6976 34.4736 18.0557C34.7666 18.3975 34.9863 18.7962 35.1328 19.252C35.2956 19.7077 35.377 20.1797 35.377 20.668C35.377 21.3027 35.2305 21.9945 34.9375 22.7432C34.6445 23.4919 34.262 24.2161 33.79 24.916C33.3343 25.6159 32.8135 26.2507 32.2275 26.8203C31.6579 27.3737 31.0882 27.7969 30.5186 28.0898C30.5511 28.3828 30.6162 28.8141 30.7139 29.3838C30.8115 29.9372 30.9417 30.4906 31.1045 31.0439C31.2835 31.5973 31.487 32.0775 31.7148 32.4844C31.959 32.8913 32.2438 33.0947 32.5693 33.0947C32.7321 33.0947 32.8704 33.0459 32.9844 32.9482C33.1146 32.8506 33.2285 32.7204 33.3262 32.5576C33.4238 32.3949 33.5052 32.2158 33.5703 32.0205C33.6517 31.8252 33.7249 31.638 33.79 31.459L33.9365 31.1172C33.9691 31.0684 33.9854 31.0358 33.9854 31.0195C34.0016 31.0033 34.0179 30.9788 34.0342 30.9463C34.1481 30.7347 34.2539 30.5394 34.3516 30.3604C34.4655 30.1813 34.6201 30.0267 34.8154 29.8965H34.791C34.8561 29.8314 34.9212 29.7988 34.9863 29.7988C35.0677 29.7826 35.141 29.7744 35.2061 29.7744C35.3851 29.7744 35.5804 29.8314 35.792 29.9453C36.0036 30.0592 36.1989 30.2057 36.3779 30.3848C36.557 30.5475 36.7035 30.7347 36.8174 30.9463C36.9313 31.1416 36.9883 31.3369 36.9883 31.5322ZM32.1543 20.7656C32.1543 20.6029 32.1462 20.432 32.1299 20.2529C32.1136 20.0739 32.0729 19.9193 32.0078 19.7891C31.7799 20.0658 31.5765 20.3994 31.3975 20.79C31.2347 21.1644 31.0964 21.5632 30.9824 21.9863C30.8685 22.3932 30.7708 22.8083 30.6895 23.2314C30.6243 23.6546 30.5755 24.0452 30.543 24.4033C30.9661 23.8988 31.3405 23.3291 31.666 22.6943C31.9915 22.0433 32.1543 21.4004 32.1543 20.7656ZM47.7793 30.5312C47.7793 30.873 47.7223 31.223 47.6084 31.5811C47.4945 31.9391 47.3643 32.2809 47.2178 32.6064C47.0225 33.0785 46.7865 33.5423 46.5098 33.998C46.2331 34.4375 45.9157 34.8363 45.5576 35.1943C45.1995 35.5361 44.7926 35.8128 44.3369 36.0244C43.8812 36.236 43.3685 36.3418 42.7988 36.3418C41.7897 36.3418 40.9515 36.0895 40.2842 35.585C39.6169 35.0804 39.0879 34.4456 38.6973 33.6807C38.3066 32.9157 38.0299 32.0775 37.8672 31.166C37.7207 30.2546 37.6475 29.3919 37.6475 28.5781C37.6475 27.9759 37.6719 27.2679 37.7207 26.4541C37.7695 25.624 37.859 24.7695 37.9893 23.8906C38.1357 23.0117 38.3392 22.141 38.5996 21.2783C38.8763 20.4157 39.2262 19.6507 39.6494 18.9834C40.0726 18.2998 40.5853 17.7464 41.1875 17.3232C41.806 16.9001 42.5384 16.6885 43.3848 16.6885C43.5638 16.6885 43.8242 16.721 44.166 16.7861C44.5078 16.8512 44.8415 16.9489 45.167 17.0791C45.5088 17.193 45.8018 17.3558 46.0459 17.5674C46.3063 17.7627 46.4365 17.9906 46.4365 18.251C46.4365 18.4951 46.3226 18.6823 46.0947 18.8125C45.8831 18.9427 45.6227 19.0404 45.3135 19.1055C45.0205 19.1543 44.7113 19.1868 44.3857 19.2031C44.0765 19.2031 43.8242 19.2031 43.6289 19.2031H43.1895C42.7337 19.61 42.3594 20.2122 42.0664 21.0098C41.7734 21.791 41.5456 22.6292 41.3828 23.5244C41.2201 24.4196 41.1061 25.3066 41.041 26.1855C40.9759 27.0482 40.9434 27.7562 40.9434 28.3096C40.9434 29.0908 41.0003 29.8639 41.1143 30.6289C41.2445 31.3776 41.4967 32.0856 41.8711 32.7529C41.9525 32.8994 42.0664 33.0703 42.2129 33.2656C42.3757 33.4447 42.5547 33.5342 42.75 33.5342C42.8965 33.5342 43.043 33.4121 43.1895 33.168C43.3522 32.9238 43.4987 32.639 43.6289 32.3135C43.7591 31.988 43.8649 31.6706 43.9463 31.3613C44.0277 31.0521 44.0846 30.8242 44.1172 30.6777C44.1335 30.6126 44.1416 30.5394 44.1416 30.458C44.1416 30.3766 44.1416 30.2952 44.1416 30.2139C44.1416 30.0674 44.1416 29.929 44.1416 29.7988C44.1579 29.6523 44.1823 29.5384 44.2148 29.457C44.3288 29.1803 44.4753 28.9932 44.6543 28.8955C44.8496 28.7979 45.0856 28.749 45.3623 28.749C45.6064 28.749 45.8669 28.7816 46.1436 28.8467C46.4202 28.9118 46.6807 29.0176 46.9248 29.1641C47.1689 29.3105 47.3724 29.4977 47.5352 29.7256C47.6979 29.9535 47.7793 30.222 47.7793 30.5312ZM54.2734 35.3896C54.2734 35.5687 54.2327 35.7233 54.1514 35.8535C54.07 35.9674 53.9642 36.057 53.834 36.1221C53.7201 36.1872 53.5898 36.2279 53.4434 36.2441C53.3132 36.2767 53.1829 36.293 53.0527 36.293C52.8737 36.293 52.6621 36.2686 52.418 36.2197C52.1901 36.1872 51.9622 36.1302 51.7344 36.0488C51.5065 35.9674 51.2949 35.8698 51.0996 35.7559C50.9206 35.6257 50.7822 35.471 50.6846 35.292C50.5869 35.1292 50.4974 34.8281 50.416 34.3887C50.3509 33.9329 50.2939 33.4121 50.2451 32.8262C50.1963 32.224 50.1556 31.5892 50.123 30.9219C50.0905 30.2383 50.0579 29.5872 50.0254 28.9688C50.0091 28.3503 49.9928 27.7969 49.9766 27.3086C49.9766 26.804 49.9766 26.4297 49.9766 26.1855C49.9766 25.0462 49.9928 23.9476 50.0254 22.8896C50.0742 21.8154 50.123 20.7168 50.1719 19.5938C50.0905 19.5938 50.0091 19.6019 49.9277 19.6182C49.8464 19.6344 49.765 19.6426 49.6836 19.6426C49.472 19.6751 49.2523 19.6995 49.0244 19.7158C48.8128 19.7321 48.5931 19.7402 48.3652 19.7402C48.0885 19.7402 47.8444 19.6914 47.6328 19.5938C47.4212 19.4961 47.3154 19.2764 47.3154 18.9346C47.3154 18.5277 47.4049 18.2021 47.584 17.958C47.763 17.7139 47.9909 17.5267 48.2676 17.3965C48.5443 17.25 48.8454 17.1523 49.1709 17.1035C49.4964 17.0384 49.8138 16.9896 50.123 16.957C50.1719 16.957 50.2044 16.957 50.2207 16.957C50.237 16.9408 50.2695 16.9326 50.3184 16.9326C50.3346 16.7373 50.3509 16.5013 50.3672 16.2246C50.3835 15.9316 50.3997 15.6143 50.416 15.2725C50.4323 14.7354 50.4567 14.1657 50.4893 13.5635C50.5218 12.945 50.5544 12.359 50.5869 11.8057C50.6195 11.236 50.6602 10.7396 50.709 10.3164C50.7578 9.87695 50.8066 9.56771 50.8555 9.38867C50.9368 9.17708 51.0264 9.00618 51.124 8.87598C51.238 8.74577 51.4414 8.68066 51.7344 8.68066C52.3854 8.68066 52.89 8.89225 53.248 9.31543C53.6061 9.73861 53.7852 10.2594 53.7852 10.8779C53.7852 11.5941 53.7607 12.3102 53.7119 13.0264C53.6794 13.7425 53.6468 14.4668 53.6143 15.1992L53.541 16.4443C53.9479 16.3955 54.3548 16.3223 54.7617 16.2246C55.1523 16.1432 55.543 16.07 55.9336 16.0049C56.3405 15.9398 56.7311 15.9072 57.1055 15.9072C57.431 15.9072 57.6833 15.9967 57.8623 16.1758C58.0413 16.3385 58.1309 16.5827 58.1309 16.9082C58.1309 17.2663 58.0658 17.6162 57.9355 17.958C57.8053 18.2998 57.5775 18.5602 57.252 18.7393H57.2764C57.2113 18.7718 57.016 18.8206 56.6904 18.8857C56.3649 18.9346 55.9906 18.9834 55.5674 19.0322C55.1605 19.0811 54.7536 19.1299 54.3467 19.1787C53.9561 19.2275 53.6631 19.2601 53.4678 19.2764H53.4434C53.4108 20.1878 53.3864 21.0911 53.3701 21.9863C53.3538 22.8652 53.3457 23.7604 53.3457 24.6719C53.3457 25.9251 53.3783 27.2598 53.4434 28.6758C53.5247 30.0755 53.6549 31.4102 53.834 32.6797L54.0293 33.7783C54.0944 34.055 54.1514 34.3317 54.2002 34.6084C54.249 34.8688 54.2734 35.1292 54.2734 35.3896ZM68.7266 25.9902C68.7266 27.4062 68.6045 28.8223 68.3604 30.2383C68.1325 31.638 67.6523 32.9645 66.9199 34.2178C66.6921 34.5921 66.4316 34.9583 66.1387 35.3164C65.8457 35.6582 65.5202 35.9674 65.1621 36.2441C64.8203 36.5371 64.4378 36.765 64.0146 36.9277C63.6077 37.1068 63.1764 37.1963 62.7207 37.1963C62.0046 37.1963 61.3779 37.0254 60.8408 36.6836C60.32 36.3581 59.8643 35.9268 59.4736 35.3896C59.0993 34.8363 58.7819 34.2178 58.5215 33.5342C58.2773 32.8343 58.082 32.1263 57.9355 31.4102C57.8053 30.6777 57.7077 29.9697 57.6426 29.2861C57.5938 28.6025 57.5693 28.0003 57.5693 27.4795C57.5693 26.8936 57.5938 26.2507 57.6426 25.5508C57.6914 24.8509 57.7728 24.1348 57.8867 23.4023C58.0169 22.6699 58.1797 21.9456 58.375 21.2295C58.5866 20.5133 58.8551 19.846 59.1807 19.2275C59.5062 18.5928 59.8968 18.0312 60.3525 17.543C60.8083 17.0384 61.3372 16.6396 61.9395 16.3467V16.3711C62.4603 16.0944 62.9811 15.9561 63.502 15.9561C63.8275 15.9561 64.0798 16.0293 64.2588 16.1758C64.4378 16.306 64.5192 16.5339 64.5029 16.8594C65.3981 17.0221 66.1224 17.4535 66.6758 18.1533C67.2292 18.8532 67.6523 19.667 67.9453 20.5947C68.2546 21.5225 68.458 22.4746 68.5557 23.4512C68.6696 24.4277 68.7266 25.2741 68.7266 25.9902ZM63.209 19.8867C62.9323 19.8867 62.6719 19.7809 62.4277 19.5693C62.1185 20.0413 61.8581 20.5866 61.6465 21.2051C61.4349 21.8073 61.264 22.4339 61.1338 23.085C61.0199 23.7197 60.9385 24.3626 60.8896 25.0137C60.8408 25.6647 60.8164 26.2751 60.8164 26.8447C60.8164 27.3167 60.8408 27.9271 60.8896 28.6758C60.9385 29.4082 61.028 30.1488 61.1582 30.8975C61.3047 31.6462 61.5 32.346 61.7441 32.9971C62.0046 33.6481 62.3382 34.1283 62.7451 34.4375C63.2497 34.1445 63.6647 33.6807 63.9902 33.0459C64.332 32.3949 64.6006 31.6868 64.7959 30.9219C64.9912 30.1569 65.1214 29.3838 65.1865 28.6025C65.2679 27.8213 65.3086 27.154 65.3086 26.6006C65.3086 26.1937 65.2842 25.6647 65.2354 25.0137C65.1865 24.3626 65.1051 23.7035 64.9912 23.0361C64.8773 22.3525 64.7145 21.7178 64.5029 21.1318C64.3076 20.5459 64.0553 20.1064 63.7461 19.8135C63.5996 19.8623 63.4206 19.8867 63.209 19.8867ZM95.5088 18.5195C95.5088 20.2611 95.3542 21.9782 95.0449 23.6709C94.7357 25.3473 94.223 26.918 93.5068 28.3828C92.807 29.8477 91.8792 31.1823 90.7236 32.3867C89.568 33.5749 88.152 34.5514 86.4756 35.3164C86.0524 35.5117 85.5885 35.6908 85.084 35.8535C84.5957 36.0163 84.083 36.1546 83.5459 36.2686C83.0251 36.3825 82.5042 36.472 81.9834 36.5371C81.4626 36.6022 80.9743 36.6348 80.5186 36.6348C80.3395 36.6348 80.1361 36.6266 79.9082 36.6104C79.6966 36.6104 79.4932 36.5778 79.2979 36.5127C79.1025 36.4639 78.9398 36.3743 78.8096 36.2441C78.6794 36.1139 78.6143 35.9349 78.6143 35.707C78.6143 35.5117 78.6549 35.3083 78.7363 35.0967C78.8177 34.8851 78.9235 34.6816 79.0537 34.4863C79.2002 34.291 79.3548 34.1201 79.5176 33.9736C79.6803 33.8109 79.8512 33.6888 80.0303 33.6074C79.9489 33.4772 79.8675 33.111 79.7861 32.5088C79.721 31.9066 79.6559 31.1416 79.5908 30.2139C79.542 29.2861 79.4932 28.2526 79.4443 27.1133C79.3955 25.9577 79.3467 24.7695 79.2979 23.5488C79.2653 22.3281 79.2327 21.1156 79.2002 19.9111C79.1839 18.6904 79.1676 17.5674 79.1514 16.542C79.1351 15.5166 79.1188 14.6296 79.1025 13.8809C79.1025 13.1159 79.1025 12.5625 79.1025 12.2207C79.1025 10.6908 79.127 9.18522 79.1758 7.7041C79.2246 6.22298 79.249 4.71745 79.249 3.1875C79.07 3.1875 78.8991 3.13867 78.7363 3.04102C78.5898 2.94336 78.5166 2.79688 78.5166 2.60156C78.5166 2.34115 78.5817 2.10514 78.7119 1.89355C78.8421 1.66569 79.0049 1.47038 79.2002 1.30762C79.4118 1.14486 79.6396 1.02279 79.8838 0.941406C80.1442 0.84375 80.3883 0.794922 80.6162 0.794922C80.8441 0.794922 81.0638 0.819336 81.2754 0.868164C81.487 0.900716 81.7067 0.941406 81.9346 0.990234C84.0993 1.51107 86.028 2.30046 87.7207 3.3584C89.4134 4.41634 90.8294 5.70215 91.9688 7.21582C93.1243 8.72949 94.0033 10.4385 94.6055 12.3428C95.2077 14.2471 95.5088 16.306 95.5088 18.5195ZM91.8955 18.0801C91.8955 16.4525 91.7002 14.9225 91.3096 13.4902C90.9189 12.0417 90.333 10.7233 89.5518 9.53516C88.7868 8.33073 87.8184 7.27279 86.6465 6.36133C85.4909 5.43359 84.1481 4.66862 82.6182 4.06641V4.16406C82.6182 8.36328 82.6833 12.5299 82.8135 16.6641C82.96 20.7819 83.1715 24.9323 83.4482 29.1152C83.4971 29.75 83.5378 30.3848 83.5703 31.0195C83.6191 31.638 83.6924 32.2565 83.79 32.875C85.32 32.3704 86.6058 31.5892 87.6475 30.5312C88.6891 29.4733 89.5192 28.2689 90.1377 26.918C90.7725 25.5508 91.2201 24.1022 91.4805 22.5723C91.7572 21.026 91.8955 19.5286 91.8955 18.0801ZM107.057 35.6826C107.057 36.0081 106.975 36.2279 106.812 36.3418C106.65 36.472 106.422 36.5371 106.129 36.5371C105.364 36.5371 104.811 36.3337 104.469 35.9268C104.143 35.5199 103.899 34.9827 103.736 34.3154C103.688 34.0876 103.639 33.8597 103.59 33.6318C103.541 33.3877 103.5 33.1517 103.468 32.9238C103.435 32.7122 103.403 32.5658 103.37 32.4844C103.338 32.403 103.305 32.2484 103.272 32.0205C103.077 32.4925 102.833 32.9889 102.54 33.5098C102.263 34.0143 101.938 34.4863 101.563 34.9258C101.189 35.349 100.766 35.6989 100.294 35.9756C99.8382 36.2523 99.3337 36.3906 98.7803 36.3906C98.1943 36.3906 97.7061 36.2523 97.3154 35.9756C96.9248 35.6826 96.6156 35.3245 96.3877 34.9014C96.1761 34.4619 96.0215 33.9818 95.9238 33.4609C95.8424 32.9401 95.8018 32.4437 95.8018 31.9717C95.8018 30.8649 95.9076 29.6686 96.1191 28.3828C96.347 27.0807 96.6562 25.7868 97.0469 24.501C97.4375 23.1989 97.8932 21.9538 98.4141 20.7656C98.9349 19.5612 99.5046 18.5114 100.123 17.6162V17.6406L100.27 17.4209C100.449 17.1768 100.652 16.9163 100.88 16.6396C101.124 16.3467 101.409 16.2002 101.734 16.2002C102.044 16.2002 102.312 16.3385 102.54 16.6152C102.768 16.8757 102.931 17.1523 103.028 17.4453C103.451 17.5267 103.793 17.6325 104.054 17.7627C104.314 17.8766 104.518 18.0231 104.664 18.2021C104.811 18.3812 104.908 18.5928 104.957 18.8369C105.006 19.0648 105.03 19.3171 105.03 19.5938C105.03 19.7077 105.03 19.8298 105.03 19.96C105.03 20.0902 105.022 20.2204 105.006 20.3506C104.99 20.4808 104.981 20.6354 104.981 20.8145C104.981 20.9935 104.981 21.1562 104.981 21.3027C104.981 21.4655 105.006 21.6771 105.055 21.9375C105.12 22.1979 105.185 22.4665 105.25 22.7432L105.421 23.6465C105.502 24.1185 105.567 24.6556 105.616 25.2578C105.681 25.86 105.755 26.4622 105.836 27.0645C105.901 27.6829 105.966 28.2852 106.031 28.8711C106.096 29.4408 106.161 29.9697 106.227 30.458L106.812 34.0713L106.886 34.4863C106.918 34.6979 106.951 34.8932 106.983 35.0723C107.032 35.2513 107.057 35.4548 107.057 35.6826ZM101.466 21.6445C101.466 21.612 101.458 21.5632 101.441 21.498C101.425 21.4167 101.409 21.3353 101.393 21.2539C101.018 22.0514 100.685 22.9222 100.392 23.8662C100.115 24.7939 99.8789 25.7461 99.6836 26.7227C99.5046 27.6829 99.3662 28.6514 99.2686 29.6279C99.1872 30.5882 99.1465 31.4997 99.1465 32.3623C99.1465 32.4437 99.1465 32.5169 99.1465 32.582C99.1465 32.6471 99.1546 32.7122 99.1709 32.7773V32.8018C99.5615 32.1995 99.8952 31.4102 100.172 30.4336C100.465 29.4408 100.709 28.4072 100.904 27.333C101.1 26.2425 101.238 25.1927 101.319 24.1836C101.417 23.1582 101.466 22.3118 101.466 21.6445ZM110.914 36.3906C110.67 36.3906 110.401 36.3581 110.108 36.293C109.832 36.2279 109.563 36.1221 109.303 35.9756C109.059 35.8291 108.847 35.6501 108.668 35.4385C108.505 35.2106 108.424 34.9421 108.424 34.6328C108.424 34.1771 108.44 33.7295 108.473 33.29C108.521 32.8343 108.57 32.3867 108.619 31.9473V31.9717L108.766 30.3359C108.814 29.75 108.855 29.1071 108.888 28.4072C108.92 27.7074 108.945 26.9993 108.961 26.2832C108.993 25.5508 109.018 24.8346 109.034 24.1348C109.05 23.4349 109.059 22.792 109.059 22.2061C109.059 21.8643 109.05 21.5225 109.034 21.1807C109.034 20.8226 109.034 20.4645 109.034 20.1064C109.018 19.7972 109.01 19.4554 109.01 19.0811C109.01 18.6904 109.01 18.3324 109.01 18.0068C109.01 17.665 109.05 17.3883 109.132 17.1768C109.229 16.9489 109.49 16.835 109.913 16.835C110.287 16.835 110.678 16.9326 111.085 17.1279C111.508 17.3232 111.801 17.5999 111.964 17.958H111.939C112.021 18.137 112.078 18.43 112.11 18.8369C112.159 19.2275 112.192 19.5775 112.208 19.8867C112.485 19.4635 112.794 19.016 113.136 18.5439C113.494 18.0719 113.876 17.6406 114.283 17.25C114.69 16.8431 115.121 16.5094 115.577 16.249C116.033 15.9886 116.521 15.8584 117.042 15.8584C117.726 15.8584 118.246 16.0293 118.604 16.3711C118.963 16.7129 119.223 17.1442 119.386 17.665C119.549 18.1696 119.638 18.7148 119.654 19.3008C119.671 19.8704 119.679 20.3913 119.679 20.8633V21.0586C119.679 21.2539 119.671 21.4492 119.654 21.6445C119.654 21.8236 119.622 21.9945 119.557 22.1572C119.508 22.3037 119.41 22.4258 119.264 22.5234C119.133 22.6211 118.946 22.6699 118.702 22.6699C118.442 22.6699 118.165 22.6374 117.872 22.5723C117.579 22.4909 117.302 22.377 117.042 22.2305C116.798 22.084 116.586 21.9049 116.407 21.6934C116.228 21.4655 116.131 21.2051 116.114 20.9121C116.114 20.7819 116.114 20.6517 116.114 20.5215C116.114 20.3913 116.122 20.2611 116.139 20.1309C116.139 20.0495 116.139 19.9518 116.139 19.8379C116.155 19.7077 116.163 19.5856 116.163 19.4717C115.642 19.9925 115.178 20.6354 114.771 21.4004C114.381 22.1654 114.023 22.9792 113.697 23.8418C113.388 24.7044 113.119 25.5752 112.892 26.4541C112.664 27.3167 112.468 28.098 112.306 28.7979V28.8711C112.257 29.3757 112.224 29.8721 112.208 30.3604C112.192 30.8486 112.175 31.3532 112.159 31.874C112.143 32.46 112.118 33.054 112.086 33.6562C112.07 34.2585 112.029 34.8444 111.964 35.4141C111.931 35.7233 111.834 35.9593 111.671 36.1221C111.524 36.3011 111.272 36.3906 110.914 36.3906ZM132.691 36.3662C132.691 36.5452 132.594 36.708 132.398 36.8545C132.203 37.001 131.975 37.123 131.715 37.2207C131.471 37.3184 131.218 37.3916 130.958 37.4404C130.698 37.5055 130.494 37.5381 130.348 37.5381C130.071 37.5381 129.819 37.4811 129.591 37.3672C129.363 37.2695 129.151 37.1393 128.956 36.9766C128.761 36.8138 128.574 36.6348 128.395 36.4395C128.232 36.2441 128.077 36.0488 127.931 35.8535C127.361 35.1536 126.775 34.3724 126.173 33.5098C125.571 32.6471 125.034 31.8252 124.562 31.0439C124.562 31.109 124.57 31.1904 124.586 31.2881C124.602 31.3857 124.61 31.4671 124.61 31.5322C124.643 31.874 124.667 32.2158 124.684 32.5576C124.716 32.8831 124.757 33.2168 124.806 33.5586C124.822 33.7539 124.838 33.9492 124.854 34.1445C124.887 34.3236 124.92 34.5189 124.952 34.7305C124.985 34.9909 125.017 35.2513 125.05 35.5117C125.082 35.7721 125.099 36.0407 125.099 36.3174C125.099 36.6592 125.001 36.887 124.806 37.001C124.61 37.1312 124.35 37.1963 124.024 37.1963C123.797 37.1963 123.552 37.18 123.292 37.1475C123.032 37.1149 122.779 37.0498 122.535 36.9521C122.291 36.8545 122.071 36.7243 121.876 36.5615C121.681 36.3988 121.534 36.1872 121.437 35.9268C121.388 35.7314 121.339 35.3652 121.29 34.8281C121.241 34.291 121.201 33.6969 121.168 33.0459C121.135 32.3786 121.103 31.7113 121.07 31.0439C121.054 30.3766 121.038 29.8232 121.021 29.3838C121.021 29.2861 121.013 29.2048 120.997 29.1396C120.997 29.0745 120.997 29.0094 120.997 28.9443C120.867 28.8304 120.753 28.6921 120.655 28.5293C120.558 28.3665 120.509 28.2119 120.509 28.0654C120.509 27.8538 120.549 27.6667 120.631 27.5039C120.712 27.3411 120.802 27.1865 120.899 27.04C120.802 25.0381 120.753 23.0443 120.753 21.0586C120.753 19.4147 120.769 17.7871 120.802 16.1758C120.851 14.5482 120.891 12.9206 120.924 11.293L120.997 8.02148C121.013 7.85872 121.021 7.64714 121.021 7.38672C121.021 7.1263 121.021 6.84961 121.021 6.55664C121.021 6.19857 121.021 5.82422 121.021 5.43359C121.021 5.04297 121.03 4.67676 121.046 4.33496C121.062 3.99316 121.078 3.68392 121.095 3.40723C121.111 3.13053 121.144 2.92708 121.192 2.79688V2.82129C121.257 2.57715 121.347 2.39811 121.461 2.28418C121.575 2.17025 121.77 2.11328 122.047 2.11328C122.73 2.11328 123.259 2.31673 123.634 2.72363C124.008 3.13053 124.195 3.67578 124.195 4.35938C124.195 5.44987 124.187 6.54036 124.171 7.63086C124.171 8.70508 124.163 9.78743 124.146 10.8779C124.13 11.9684 124.114 13.0589 124.098 14.1494C124.098 15.2236 124.098 16.306 124.098 17.3965C124.098 17.7871 124.098 18.1859 124.098 18.5928C124.114 18.9834 124.122 19.3822 124.122 19.7891C124.138 20.1146 124.146 20.4482 124.146 20.79C124.146 21.1318 124.146 21.4899 124.146 21.8643L126.783 17.665V17.6895L127.003 17.25C127.052 17.1686 127.076 17.1117 127.076 17.0791C127.092 17.0465 127.109 17.0059 127.125 16.957C127.158 16.8919 127.215 16.7943 127.296 16.6641C127.394 16.5339 127.556 16.3385 127.784 16.0781C127.866 15.9967 127.963 15.9235 128.077 15.8584C128.191 15.7933 128.338 15.7607 128.517 15.7607C128.696 15.7607 128.875 15.8177 129.054 15.9316C129.249 16.0293 129.42 16.1595 129.566 16.3223C129.713 16.485 129.835 16.6641 129.933 16.8594C130.03 17.0547 130.079 17.2337 130.079 17.3965C130.079 17.5267 130.006 17.7546 129.859 18.0801C129.713 18.3893 129.518 18.7718 129.273 19.2275C129.046 19.6833 128.785 20.1797 128.492 20.7168C128.199 21.2376 127.89 21.7666 127.564 22.3037C127.255 22.8408 126.954 23.3617 126.661 23.8662C126.368 24.3708 126.108 24.8184 125.88 25.209L125.245 26.2344C125.619 26.8854 126.051 27.6097 126.539 28.4072C127.044 29.1885 127.573 29.9779 128.126 30.7754C128.679 31.5729 129.241 32.3379 129.811 33.0703C130.396 33.8027 130.966 34.4456 131.52 34.999L131.764 35.1943C131.959 35.3408 132.162 35.5199 132.374 35.7314C132.586 35.9268 132.691 36.1383 132.691 36.3662ZM160.328 36.0488C160.328 36.3743 160.247 36.6348 160.084 36.8301C159.938 37.0254 159.677 37.123 159.303 37.123C159.107 37.123 158.904 37.0986 158.692 37.0498C158.481 37.0173 158.277 36.9603 158.082 36.8789C157.675 36.765 157.35 36.6592 157.105 36.5615C156.878 36.4639 156.699 36.3337 156.568 36.1709C156.454 36.0244 156.381 35.8291 156.349 35.585C156.316 35.3408 156.292 35.0072 156.275 34.584C156.145 31.2474 155.999 27.9434 155.836 24.6719C155.689 21.3841 155.445 18.0801 155.104 14.7598C154.876 15.8828 154.656 17.0059 154.444 18.1289C154.233 19.252 154.013 20.3913 153.785 21.5469C153.557 22.7513 153.338 23.9801 153.126 25.2334C152.931 26.4867 152.613 27.6992 152.174 28.8711C151.995 29.3431 151.775 29.7174 151.515 29.9941C151.254 30.2546 150.855 30.3848 150.318 30.3848C149.928 30.3848 149.61 30.3197 149.366 30.1895C149.122 30.043 148.886 29.8314 148.658 29.5547C148.447 29.3268 148.219 28.8874 147.975 28.2363C147.73 27.5853 147.47 26.8285 147.193 25.9658C146.933 25.0869 146.673 24.151 146.412 23.1582C146.152 22.1654 145.908 21.2132 145.68 20.3018C145.452 19.374 145.248 18.5277 145.069 17.7627C144.89 16.9977 144.752 16.4199 144.654 16.0293V19.3496C144.654 21.5143 144.695 23.6709 144.776 25.8193C144.858 27.9678 144.996 30.1081 145.191 32.2402C145.24 32.7122 145.305 33.1842 145.387 33.6562C145.484 34.1283 145.533 34.6003 145.533 35.0723C145.533 35.4954 145.387 35.7721 145.094 35.9023C144.817 36.0326 144.508 36.0977 144.166 36.0977C143.238 36.0977 142.522 35.9023 142.018 35.5117C141.529 35.1048 141.285 34.4212 141.285 33.4609C141.285 31.4915 141.236 29.5384 141.139 27.6016C141.041 25.6647 140.992 23.7116 140.992 21.7422C140.992 21.4655 140.992 20.9854 140.992 20.3018C141.008 19.6182 141.025 18.8125 141.041 17.8848C141.057 16.9408 141.074 15.9235 141.09 14.833C141.122 13.7262 141.155 12.6113 141.188 11.4883C141.22 10.3652 141.253 9.27474 141.285 8.2168C141.318 7.14258 141.35 6.18229 141.383 5.33594C141.415 4.48958 141.448 3.78971 141.48 3.23633C141.529 2.66667 141.578 2.32487 141.627 2.21094C141.708 1.98307 141.798 1.83659 141.896 1.77148C142.009 1.70638 142.18 1.67383 142.408 1.67383C143.027 1.67383 143.539 1.81217 143.946 2.08887C144.369 2.34928 144.654 2.79688 144.801 3.43164C145.029 3.77344 145.289 4.40007 145.582 5.31152C145.875 6.20671 146.184 7.25651 146.51 8.46094C146.835 9.66536 147.161 10.9674 147.486 12.3672C147.828 13.7507 148.146 15.0853 148.438 16.3711C148.748 17.6569 149.024 18.8369 149.269 19.9111C149.529 20.9854 149.732 21.8073 149.879 22.377C150.351 19.5775 150.831 16.7943 151.319 14.0273C151.808 11.2604 152.271 8.47721 152.711 5.67773C152.792 5.20573 152.874 4.74186 152.955 4.28613C153.053 3.8304 153.102 3.36654 153.102 2.89453C153.102 2.60156 153.061 2.33301 152.979 2.08887C152.898 1.82845 152.857 1.5599 152.857 1.2832C152.857 0.941406 152.963 0.737956 153.175 0.672852C153.403 0.591471 153.655 0.550781 153.932 0.550781C154.192 0.550781 154.501 0.591471 154.859 0.672852C155.217 0.754232 155.559 0.876302 155.885 1.03906C156.227 1.20182 156.511 1.40527 156.739 1.64941C156.983 1.89355 157.105 2.17839 157.105 2.50391C157.105 3.07357 157.057 3.67578 156.959 4.31055C157.545 7.0612 158.033 9.81999 158.424 12.5869C158.814 15.3376 159.107 18.1126 159.303 20.9121C159.498 23.321 159.653 25.7135 159.767 28.0898C159.897 30.4661 160.051 32.8424 160.23 35.2188C160.263 35.3652 160.287 35.5036 160.304 35.6338C160.32 35.764 160.328 35.9023 160.328 36.0488ZM173.219 25.9902C173.219 27.4062 173.097 28.8223 172.853 30.2383C172.625 31.638 172.145 32.9645 171.412 34.2178C171.184 34.5921 170.924 34.9583 170.631 35.3164C170.338 35.6582 170.012 35.9674 169.654 36.2441C169.312 36.5371 168.93 36.765 168.507 36.9277C168.1 37.1068 167.669 37.1963 167.213 37.1963C166.497 37.1963 165.87 37.0254 165.333 36.6836C164.812 36.3581 164.356 35.9268 163.966 35.3896C163.591 34.8363 163.274 34.2178 163.014 33.5342C162.77 32.8343 162.574 32.1263 162.428 31.4102C162.298 30.6777 162.2 29.9697 162.135 29.2861C162.086 28.6025 162.062 28.0003 162.062 27.4795C162.062 26.8936 162.086 26.2507 162.135 25.5508C162.184 24.8509 162.265 24.1348 162.379 23.4023C162.509 22.6699 162.672 21.9456 162.867 21.2295C163.079 20.5133 163.347 19.846 163.673 19.2275C163.998 18.5928 164.389 18.0312 164.845 17.543C165.3 17.0384 165.829 16.6396 166.432 16.3467V16.3711C166.952 16.0944 167.473 15.9561 167.994 15.9561C168.32 15.9561 168.572 16.0293 168.751 16.1758C168.93 16.306 169.011 16.5339 168.995 16.8594C169.89 17.0221 170.615 17.4535 171.168 18.1533C171.721 18.8532 172.145 19.667 172.438 20.5947C172.747 21.5225 172.95 22.4746 173.048 23.4512C173.162 24.4277 173.219 25.2741 173.219 25.9902ZM167.701 19.8867C167.424 19.8867 167.164 19.7809 166.92 19.5693C166.611 20.0413 166.35 20.5866 166.139 21.2051C165.927 21.8073 165.756 22.4339 165.626 23.085C165.512 23.7197 165.431 24.3626 165.382 25.0137C165.333 25.6647 165.309 26.2751 165.309 26.8447C165.309 27.3167 165.333 27.9271 165.382 28.6758C165.431 29.4082 165.52 30.1488 165.65 30.8975C165.797 31.6462 165.992 32.346 166.236 32.9971C166.497 33.6481 166.83 34.1283 167.237 34.4375C167.742 34.1445 168.157 33.6807 168.482 33.0459C168.824 32.3949 169.093 31.6868 169.288 30.9219C169.483 30.1569 169.614 29.3838 169.679 28.6025C169.76 27.8213 169.801 27.154 169.801 26.6006C169.801 26.1937 169.776 25.6647 169.728 25.0137C169.679 24.3626 169.597 23.7035 169.483 23.0361C169.369 22.3525 169.207 21.7178 168.995 21.1318C168.8 20.5459 168.548 20.1064 168.238 19.8135C168.092 19.8623 167.913 19.8867 167.701 19.8867ZM185.914 35.2432C185.914 35.4222 185.873 35.5768 185.792 35.707C185.711 35.821 185.605 35.9186 185.475 36C185.361 36.0651 185.23 36.1139 185.084 36.1465C184.954 36.179 184.824 36.1953 184.693 36.1953C184.498 36.1953 184.286 36.1709 184.059 36.1221C183.831 36.0732 183.603 36.0081 183.375 35.9268C183.147 35.8291 182.936 35.7152 182.74 35.585C182.561 35.4385 182.423 35.2757 182.325 35.0967C182.228 34.9176 182.154 34.6979 182.105 34.4375C182.073 34.1608 182.04 33.8841 182.008 33.6074C181.845 33.998 181.65 34.3805 181.422 34.7549C181.21 35.1292 180.95 35.4629 180.641 35.7559C180.331 36.0326 179.981 36.2523 179.591 36.415C179.216 36.5941 178.793 36.6836 178.321 36.6836C177.491 36.6836 176.816 36.4883 176.295 36.0977C175.79 35.707 175.392 35.2188 175.099 34.6328C174.822 34.0306 174.635 33.3796 174.537 32.6797C174.456 31.9635 174.415 31.2799 174.415 30.6289C174.415 30.0918 174.439 29.4814 174.488 28.7979C174.537 28.1143 174.602 27.4144 174.684 26.6982C174.765 25.9821 174.863 25.2904 174.977 24.623C175.09 23.9395 175.213 23.3372 175.343 22.8164C175.506 22.2142 175.701 21.555 175.929 20.8389C176.173 20.1064 176.474 19.431 176.832 18.8125C177.206 18.1777 177.662 17.6406 178.199 17.2012C178.736 16.7617 179.379 16.5176 180.128 16.4688C180.079 15.1504 180.006 13.9378 179.908 12.8311C179.827 11.708 179.737 10.5605 179.64 9.38867L179.396 6.67871L179.298 5.70215C179.265 5.44173 179.241 5.18132 179.225 4.9209C179.208 4.64421 179.2 4.37565 179.2 4.11523C179.2 3.74089 179.298 3.48047 179.493 3.33398C179.705 3.1875 179.973 3.11426 180.299 3.11426C181.015 3.11426 181.56 3.22005 181.935 3.43164C182.309 3.64323 182.569 3.92806 182.716 4.28613C182.879 4.64421 182.968 5.06738 182.984 5.55566C183.001 6.02767 183.009 6.54036 183.009 7.09375C183.009 7.45182 183.049 7.85872 183.131 8.31445L183.253 9.21777L183.448 11.708C183.481 12.0986 183.513 12.4893 183.546 12.8799C183.578 13.2705 183.611 13.6611 183.644 14.0518L184.156 19.3008L185.133 29.1152L185.206 30.0186C185.271 30.6859 185.328 31.3776 185.377 32.0938C185.442 32.8099 185.556 33.5179 185.719 34.2178C185.768 34.3968 185.808 34.5677 185.841 34.7305C185.89 34.8932 185.914 35.0641 185.914 35.2432ZM180.226 20.9609C180.226 20.7819 180.217 20.5866 180.201 20.375C180.201 20.1471 180.201 19.9355 180.201 19.7402V19.0811C180.087 19.2438 179.941 19.4717 179.762 19.7646C179.583 20.0413 179.444 20.2936 179.347 20.5215C179.086 21.0911 178.85 21.8236 178.639 22.7188C178.427 23.5977 178.24 24.5254 178.077 25.502C177.931 26.4622 177.817 27.4062 177.735 28.334C177.654 29.2454 177.613 30.0104 177.613 30.6289C177.613 30.8568 177.613 31.1172 177.613 31.4102C177.63 31.7031 177.662 32.0042 177.711 32.3135C177.76 32.6064 177.833 32.8913 177.931 33.168C178.028 33.4447 178.159 33.6725 178.321 33.8516C178.565 33.5423 178.785 33.0703 178.98 32.4355C179.176 31.7845 179.339 31.0521 179.469 30.2383C179.615 29.4082 179.737 28.5374 179.835 27.626C179.933 26.7145 180.006 25.8356 180.055 24.9893C180.12 24.1266 180.16 23.3454 180.177 22.6455C180.209 21.9294 180.226 21.3678 180.226 20.9609ZM197.096 31.5322C197.096 32.0205 196.957 32.5251 196.681 33.0459C196.42 33.5667 196.078 34.0469 195.655 34.4863C195.232 34.9095 194.744 35.2594 194.19 35.5361C193.653 35.8128 193.116 35.9512 192.579 35.9512C191.814 35.9512 191.155 35.8047 190.602 35.5117C190.048 35.2025 189.568 34.7956 189.161 34.291C188.754 33.7702 188.421 33.1842 188.16 32.5332C187.916 31.8822 187.721 31.2148 187.574 30.5312C187.428 29.8314 187.322 29.1396 187.257 28.4561C187.208 27.7562 187.184 27.1214 187.184 26.5518C187.184 26.0635 187.208 25.4857 187.257 24.8184C187.322 24.151 187.42 23.4593 187.55 22.7432C187.696 22.027 187.892 21.319 188.136 20.6191C188.38 19.9193 188.681 19.2926 189.039 18.7393C189.413 18.1859 189.853 17.7383 190.357 17.3965C190.878 17.0547 191.472 16.8838 192.14 16.8838C192.66 16.8838 193.124 16.9896 193.531 17.2012C193.954 17.4128 194.304 17.6976 194.581 18.0557C194.874 18.3975 195.094 18.7962 195.24 19.252C195.403 19.7077 195.484 20.1797 195.484 20.668C195.484 21.3027 195.338 21.9945 195.045 22.7432C194.752 23.4919 194.369 24.2161 193.897 24.916C193.442 25.6159 192.921 26.2507 192.335 26.8203C191.765 27.3737 191.196 27.7969 190.626 28.0898C190.659 28.3828 190.724 28.8141 190.821 29.3838C190.919 29.9372 191.049 30.4906 191.212 31.0439C191.391 31.5973 191.594 32.0775 191.822 32.4844C192.066 32.8913 192.351 33.0947 192.677 33.0947C192.84 33.0947 192.978 33.0459 193.092 32.9482C193.222 32.8506 193.336 32.7204 193.434 32.5576C193.531 32.3949 193.613 32.2158 193.678 32.0205C193.759 31.8252 193.832 31.638 193.897 31.459L194.044 31.1172C194.076 31.0684 194.093 31.0358 194.093 31.0195C194.109 31.0033 194.125 30.9788 194.142 30.9463C194.256 30.7347 194.361 30.5394 194.459 30.3604C194.573 30.1813 194.728 30.0267 194.923 29.8965H194.898C194.964 29.8314 195.029 29.7988 195.094 29.7988C195.175 29.7826 195.248 29.7744 195.313 29.7744C195.493 29.7744 195.688 29.8314 195.899 29.9453C196.111 30.0592 196.306 30.2057 196.485 30.3848C196.664 30.5475 196.811 30.7347 196.925 30.9463C197.039 31.1416 197.096 31.3369 197.096 31.5322ZM192.262 20.7656C192.262 20.6029 192.254 20.432 192.237 20.2529C192.221 20.0739 192.18 19.9193 192.115 19.7891C191.887 20.0658 191.684 20.3994 191.505 20.79C191.342 21.1644 191.204 21.5632 191.09 21.9863C190.976 22.3932 190.878 22.8083 190.797 23.2314C190.732 23.6546 190.683 24.0452 190.65 24.4033C191.074 23.8988 191.448 23.3291 191.773 22.6943C192.099 22.0433 192.262 21.4004 192.262 20.7656Z" fill="white"/>
</svg>
