<svg width="201" height="55" viewBox="0 0 201 55" fill="none" xmlns="http://www.w3.org/2000/svg">
<path d="M17.75 30.6777C17.75 30.9544 17.6361 31.223 17.4082 31.4834C17.1966 31.7438 16.9362 31.9961 16.627 32.2402C16.3177 32.4844 16.0003 32.7122 15.6748 32.9238C15.3493 33.1191 15.0807 33.2819 14.8691 33.4121C14.3158 33.7702 13.7624 34.1038 13.209 34.4131C12.6719 34.7223 12.1104 34.9909 11.5244 35.2188C10.9548 35.4466 10.3607 35.6257 9.74219 35.7559C9.13997 35.8861 8.50521 35.9512 7.83789 35.9512L7.44727 36C6.91016 36 6.37305 35.943 5.83594 35.8291C5.3151 35.6989 4.82682 35.5117 4.37109 35.2676C3.91536 35.0072 3.50846 34.6816 3.15039 34.291C2.79232 33.9004 2.51562 33.4284 2.32031 32.875C2.17383 32.4355 2.0599 31.9147 1.97852 31.3125C1.89714 30.7103 1.83203 30.0837 1.7832 29.4326C1.75065 28.7816 1.7181 28.1468 1.68555 27.5283C1.66927 26.8936 1.65299 26.332 1.63672 25.8438C1.39258 20.8633 1.19727 15.8828 1.05078 10.9023C1.01823 10.3327 0.993815 9.76302 0.977539 9.19336C0.961263 8.6237 0.953125 8.05404 0.953125 7.48438C0.953125 6.50781 1.01009 5.67773 1.12402 4.99414C1.23796 4.31055 1.46582 3.74902 1.80762 3.30957C2.14941 2.87012 2.6377 2.55273 3.27246 2.35742C3.9235 2.16211 4.77799 2.06445 5.83594 2.06445C6.89388 2.06445 7.95182 2.07259 9.00977 2.08887C10.084 2.10514 11.1582 2.11328 12.2324 2.11328C12.5579 2.11328 12.8835 2.10514 13.209 2.08887C13.5345 2.05632 13.86 2.08073 14.1855 2.16211C14.3809 2.19466 14.5518 2.25163 14.6982 2.33301C14.8447 2.39811 14.918 2.55273 14.918 2.79688C14.918 3.38281 14.7227 3.82227 14.332 4.11523C13.9414 4.39193 13.4775 4.5791 12.9404 4.67676C12.4033 4.77441 11.8418 4.82324 11.2559 4.82324C10.6862 4.80697 10.2142 4.79883 9.83984 4.79883H6.66602C6.34049 4.79883 6.01497 4.79883 5.68945 4.79883C5.36393 4.79883 5.03841 4.8151 4.71289 4.84766C4.61523 5.0918 4.55013 5.34408 4.51758 5.60449C4.48503 5.86491 4.46875 6.13346 4.46875 6.41016C4.46875 8.18424 4.50944 9.93392 4.59082 11.6592C4.68848 13.3844 4.77799 15.1341 4.85938 16.9082C5.86849 16.8268 6.86947 16.7292 7.8623 16.6152C8.85514 16.5013 9.85612 16.3711 10.8652 16.2246C11.0117 16.2246 11.1419 16.2165 11.2559 16.2002C11.3861 16.1839 11.5163 16.1758 11.6465 16.1758C11.9883 16.1758 12.2243 16.2653 12.3545 16.4443C12.501 16.6234 12.5742 16.8757 12.5742 17.2012C12.5742 17.429 12.5579 17.6406 12.5254 17.8359C12.5091 18.0312 12.4603 18.2266 12.3789 18.4219C12.265 18.7474 12.0778 18.9834 11.8174 19.1299C11.557 19.2764 11.264 19.3822 10.9385 19.4473C10.613 19.4961 10.2712 19.5205 9.91309 19.5205C9.57129 19.5205 9.27018 19.5286 9.00977 19.5449C8.32617 19.5775 7.65072 19.6019 6.9834 19.6182C6.33236 19.6344 5.67318 19.6589 5.00586 19.6914C5.02214 20.0332 5.04655 20.5459 5.0791 21.2295C5.11165 21.9131 5.14421 22.6862 5.17676 23.5488C5.22559 24.3952 5.27441 25.2741 5.32324 26.1855C5.38835 27.097 5.45345 27.9596 5.51855 28.7734C5.58366 29.571 5.6569 30.2708 5.73828 30.873C5.81966 31.4753 5.90104 31.8822 5.98242 32.0938C6.16146 32.4355 6.36491 32.6634 6.59277 32.7773C6.82064 32.875 7.12174 32.9238 7.49609 32.9238C8.09831 32.9238 8.73307 32.8099 9.40039 32.582C10.0677 32.3379 10.7188 32.0368 11.3535 31.6787C11.9883 31.3044 12.5905 30.8975 13.1602 30.458C13.7461 30.0186 14.2507 29.5872 14.6738 29.1641C14.8529 29.0176 15.0319 28.8711 15.2109 28.7246C15.39 28.5618 15.6016 28.4805 15.8457 28.4805C16.0898 28.4805 16.3258 28.5537 16.5537 28.7002C16.7816 28.8467 16.985 29.0339 17.1641 29.2617C17.3431 29.4733 17.4814 29.7093 17.5791 29.9697C17.693 30.2301 17.75 30.4661 17.75 30.6777ZM27.7109 5.65332C27.7109 5.83236 27.6296 5.98698 27.4668 6.11719C27.3203 6.23112 27.1413 6.32878 26.9297 6.41016C26.7181 6.47526 26.5065 6.52409 26.2949 6.55664C26.0833 6.58919 25.9206 6.60547 25.8066 6.60547C25.4323 6.60547 25.0824 6.5485 24.7568 6.43457C24.4313 6.30436 24.0814 6.23112 23.707 6.21484C23.1699 6.36133 22.6898 6.68685 22.2666 7.19141C21.8434 7.69596 21.5098 8.42839 21.2656 9.38867C21.0215 10.349 20.8831 11.5534 20.8506 13.002C20.818 14.4505 20.9238 16.2002 21.168 18.251C22.1934 18.0394 23.1455 17.8604 24.0244 17.7139C24.9196 17.5511 25.6113 17.4697 26.0996 17.4697C26.4902 17.4697 26.7588 17.5755 26.9053 17.7871C27.0518 17.9987 27.125 18.2673 27.125 18.5928C27.125 18.9183 27.0924 19.2194 27.0273 19.4961C26.9622 19.7728 26.7913 20.0007 26.5146 20.1797L21.4121 20.9609C21.4935 21.6445 21.5586 22.3363 21.6074 23.0361C21.6725 23.7197 21.7376 24.3952 21.8027 25.0625C22.0632 27.1784 22.2829 28.9118 22.4619 30.2627C22.6572 31.6136 22.8118 32.696 22.9258 33.5098C23.056 34.3073 23.1536 34.8851 23.2188 35.2432C23.3001 35.585 23.3571 35.821 23.3896 35.9512C23.4222 36.0651 23.4385 36.1139 23.4385 36.0977C23.4548 36.0814 23.4629 36.0977 23.4629 36.1465C23.4629 36.4883 23.3571 36.7243 23.1455 36.8545C22.9339 37.001 22.6816 37.0742 22.3887 37.0742C22.1608 37.0742 21.9167 37.0498 21.6562 37.001C21.4121 36.9684 21.168 36.9115 20.9238 36.8301C20.6797 36.7487 20.46 36.6348 20.2646 36.4883C20.0693 36.3418 19.931 36.1628 19.8496 35.9512C19.7194 34.8444 19.5648 33.7865 19.3857 32.7773C19.2067 31.7682 19.0521 30.7184 18.9219 29.6279C18.7917 28.3421 18.6452 26.9749 18.4824 25.5264C18.3359 24.0778 18.2139 22.6943 18.1162 21.376C18.0511 21.3923 17.986 21.4004 17.9209 21.4004C17.8558 21.3841 17.7826 21.376 17.7012 21.376C17.4408 21.376 17.221 21.319 17.042 21.2051C16.8792 21.0749 16.7979 20.847 16.7979 20.5215C16.7979 20.1471 16.8874 19.8053 17.0664 19.4961C17.2617 19.1868 17.5465 18.9834 17.9209 18.8857C17.8721 17.9906 17.8151 16.9977 17.75 15.9072C17.6849 14.8167 17.6605 13.71 17.6768 12.5869C17.693 11.4476 17.7826 10.349 17.9453 9.29102C18.1243 8.2168 18.4336 7.27279 18.873 6.45898C19.3125 5.62891 19.9147 4.96159 20.6797 4.45703C21.4447 3.95247 22.4294 3.7002 23.6338 3.7002C23.8779 3.7002 24.2197 3.74089 24.6592 3.82227C25.1149 3.90365 25.5706 4.03385 26.0264 4.21289C26.4821 4.37565 26.8727 4.5791 27.1982 4.82324C27.54 5.06738 27.7109 5.34408 27.7109 5.65332ZM36.9883 31.5322C36.9883 32.0205 36.8499 32.5251 36.5732 33.0459C36.3128 33.5667 35.971 34.0469 35.5479 34.4863C35.1247 34.9095 34.6364 35.2594 34.083 35.5361C33.5459 35.8128 33.0088 35.9512 32.4717 35.9512C31.7067 35.9512 31.0475 35.8047 30.4941 35.5117C29.9408 35.2025 29.4606 34.7956 29.0537 34.291C28.6468 33.7702 28.3132 33.1842 28.0527 32.5332C27.8086 31.8822 27.6133 31.2148 27.4668 30.5312C27.3203 29.8314 27.2145 29.1396 27.1494 28.4561C27.1006 27.7562 27.0762 27.1214 27.0762 26.5518C27.0762 26.0635 27.1006 25.4857 27.1494 24.8184C27.2145 24.151 27.3122 23.4593 27.4424 22.7432C27.5889 22.027 27.7842 21.319 28.0283 20.6191C28.2725 19.9193 28.5736 19.2926 28.9316 18.7393C29.306 18.1859 29.7454 17.7383 30.25 17.3965C30.7708 17.0547 31.3649 16.8838 32.0322 16.8838C32.5531 16.8838 33.0169 16.9896 33.4238 17.2012C33.847 17.4128 34.1969 17.6976 34.4736 18.0557C34.7666 18.3975 34.9863 18.7962 35.1328 19.252C35.2956 19.7077 35.377 20.1797 35.377 20.668C35.377 21.3027 35.2305 21.9945 34.9375 22.7432C34.6445 23.4919 34.262 24.2161 33.79 24.916C33.3343 25.6159 32.8135 26.2507 32.2275 26.8203C31.6579 27.3737 31.0882 27.7969 30.5186 28.0898C30.5511 28.3828 30.6162 28.8141 30.7139 29.3838C30.8115 29.9372 30.9417 30.4906 31.1045 31.0439C31.2835 31.5973 31.487 32.0775 31.7148 32.4844C31.959 32.8913 32.2438 33.0947 32.5693 33.0947C32.7321 33.0947 32.8704 33.0459 32.9844 32.9482C33.1146 32.8506 33.2285 32.7204 33.3262 32.5576C33.4238 32.3949 33.5052 32.2158 33.5703 32.0205C33.6517 31.8252 33.7249 31.638 33.79 31.459L33.9365 31.1172C33.9691 31.0684 33.9854 31.0358 33.9854 31.0195C34.0016 31.0033 34.0179 30.9788 34.0342 30.9463C34.1481 30.7347 34.2539 30.5394 34.3516 30.3604C34.4655 30.1813 34.6201 30.0267 34.8154 29.8965H34.791C34.8561 29.8314 34.9212 29.7988 34.9863 29.7988C35.0677 29.7826 35.141 29.7744 35.2061 29.7744C35.3851 29.7744 35.5804 29.8314 35.792 29.9453C36.0036 30.0592 36.1989 30.2057 36.3779 30.3848C36.557 30.5475 36.7035 30.7347 36.8174 30.9463C36.9313 31.1416 36.9883 31.3369 36.9883 31.5322ZM32.1543 20.7656C32.1543 20.6029 32.1462 20.432 32.1299 20.2529C32.1136 20.0739 32.0729 19.9193 32.0078 19.7891C31.7799 20.0658 31.5765 20.3994 31.3975 20.79C31.2347 21.1644 31.0964 21.5632 30.9824 21.9863C30.8685 22.3932 30.7708 22.8083 30.6895 23.2314C30.6243 23.6546 30.5755 24.0452 30.543 24.4033C30.9661 23.8988 31.3405 23.3291 31.666 22.6943C31.9915 22.0433 32.1543 21.4004 32.1543 20.7656ZM47.7793 30.5312C47.7793 30.873 47.7223 31.223 47.6084 31.5811C47.4945 31.9391 47.3643 32.2809 47.2178 32.6064C47.0225 33.0785 46.7865 33.5423 46.5098 33.998C46.2331 34.4375 45.9157 34.8363 45.5576 35.1943C45.1995 35.5361 44.7926 35.8128 44.3369 36.0244C43.8812 36.236 43.3685 36.3418 42.7988 36.3418C41.7897 36.3418 40.9515 36.0895 40.2842 35.585C39.6169 35.0804 39.0879 34.4456 38.6973 33.6807C38.3066 32.9157 38.0299 32.0775 37.8672 31.166C37.7207 30.2546 37.6475 29.3919 37.6475 28.5781C37.6475 27.9759 37.6719 27.2679 37.7207 26.4541C37.7695 25.624 37.859 24.7695 37.9893 23.8906C38.1357 23.0117 38.3392 22.141 38.5996 21.2783C38.8763 20.4157 39.2262 19.6507 39.6494 18.9834C40.0726 18.2998 40.5853 17.7464 41.1875 17.3232C41.806 16.9001 42.5384 16.6885 43.3848 16.6885C43.5638 16.6885 43.8242 16.721 44.166 16.7861C44.5078 16.8512 44.8415 16.9489 45.167 17.0791C45.5088 17.193 45.8018 17.3558 46.0459 17.5674C46.3063 17.7627 46.4365 17.9906 46.4365 18.251C46.4365 18.4951 46.3226 18.6823 46.0947 18.8125C45.8831 18.9427 45.6227 19.0404 45.3135 19.1055C45.0205 19.1543 44.7113 19.1868 44.3857 19.2031C44.0765 19.2031 43.8242 19.2031 43.6289 19.2031H43.1895C42.7337 19.61 42.3594 20.2122 42.0664 21.0098C41.7734 21.791 41.5456 22.6292 41.3828 23.5244C41.2201 24.4196 41.1061 25.3066 41.041 26.1855C40.9759 27.0482 40.9434 27.7562 40.9434 28.3096C40.9434 29.0908 41.0003 29.8639 41.1143 30.6289C41.2445 31.3776 41.4967 32.0856 41.8711 32.7529C41.9525 32.8994 42.0664 33.0703 42.2129 33.2656C42.3757 33.4447 42.5547 33.5342 42.75 33.5342C42.8965 33.5342 43.043 33.4121 43.1895 33.168C43.3522 32.9238 43.4987 32.639 43.6289 32.3135C43.7591 31.988 43.8649 31.6706 43.9463 31.3613C44.0277 31.0521 44.0846 30.8242 44.1172 30.6777C44.1335 30.6126 44.1416 30.5394 44.1416 30.458C44.1416 30.3766 44.1416 30.2952 44.1416 30.2139C44.1416 30.0674 44.1416 29.929 44.1416 29.7988C44.1579 29.6523 44.1823 29.5384 44.2148 29.457C44.3288 29.1803 44.4753 28.9932 44.6543 28.8955C44.8496 28.7979 45.0856 28.749 45.3623 28.749C45.6064 28.749 45.8669 28.7816 46.1436 28.8467C46.4202 28.9118 46.6807 29.0176 46.9248 29.1641C47.1689 29.3105 47.3724 29.4977 47.5352 29.7256C47.6979 29.9535 47.7793 30.222 47.7793 30.5312ZM54.2734 35.3896C54.2734 35.5687 54.2327 35.7233 54.1514 35.8535C54.07 35.9674 53.9642 36.057 53.834 36.1221C53.7201 36.1872 53.5898 36.2279 53.4434 36.2441C53.3132 36.2767 53.1829 36.293 53.0527 36.293C52.8737 36.293 52.6621 36.2686 52.418 36.2197C52.1901 36.1872 51.9622 36.1302 51.7344 36.0488C51.5065 35.9674 51.2949 35.8698 51.0996 35.7559C50.9206 35.6257 50.7822 35.471 50.6846 35.292C50.5869 35.1292 50.4974 34.8281 50.416 34.3887C50.3509 33.9329 50.2939 33.4121 50.2451 32.8262C50.1963 32.224 50.1556 31.5892 50.123 30.9219C50.0905 30.2383 50.0579 29.5872 50.0254 28.9688C50.0091 28.3503 49.9928 27.7969 49.9766 27.3086C49.9766 26.804 49.9766 26.4297 49.9766 26.1855C49.9766 25.0462 49.9928 23.9476 50.0254 22.8896C50.0742 21.8154 50.123 20.7168 50.1719 19.5938C50.0905 19.5938 50.0091 19.6019 49.9277 19.6182C49.8464 19.6344 49.765 19.6426 49.6836 19.6426C49.472 19.6751 49.2523 19.6995 49.0244 19.7158C48.8128 19.7321 48.5931 19.7402 48.3652 19.7402C48.0885 19.7402 47.8444 19.6914 47.6328 19.5938C47.4212 19.4961 47.3154 19.2764 47.3154 18.9346C47.3154 18.5277 47.4049 18.2021 47.584 17.958C47.763 17.7139 47.9909 17.5267 48.2676 17.3965C48.5443 17.25 48.8454 17.1523 49.1709 17.1035C49.4964 17.0384 49.8138 16.9896 50.123 16.957C50.1719 16.957 50.2044 16.957 50.2207 16.957C50.237 16.9408 50.2695 16.9326 50.3184 16.9326C50.3346 16.7373 50.3509 16.5013 50.3672 16.2246C50.3835 15.9316 50.3997 15.6143 50.416 15.2725C50.4323 14.7354 50.4567 14.1657 50.4893 13.5635C50.5218 12.945 50.5544 12.359 50.5869 11.8057C50.6195 11.236 50.6602 10.7396 50.709 10.3164C50.7578 9.87695 50.8066 9.56771 50.8555 9.38867C50.9368 9.17708 51.0264 9.00618 51.124 8.87598C51.238 8.74577 51.4414 8.68066 51.7344 8.68066C52.3854 8.68066 52.89 8.89225 53.248 9.31543C53.6061 9.73861 53.7852 10.2594 53.7852 10.8779C53.7852 11.5941 53.7607 12.3102 53.7119 13.0264C53.6794 13.7425 53.6468 14.4668 53.6143 15.1992L53.541 16.4443C53.9479 16.3955 54.3548 16.3223 54.7617 16.2246C55.1523 16.1432 55.543 16.07 55.9336 16.0049C56.3405 15.9398 56.7311 15.9072 57.1055 15.9072C57.431 15.9072 57.6833 15.9967 57.8623 16.1758C58.0413 16.3385 58.1309 16.5827 58.1309 16.9082C58.1309 17.2663 58.0658 17.6162 57.9355 17.958C57.8053 18.2998 57.5775 18.5602 57.252 18.7393H57.2764C57.2113 18.7718 57.016 18.8206 56.6904 18.8857C56.3649 18.9346 55.9906 18.9834 55.5674 19.0322C55.1605 19.0811 54.7536 19.1299 54.3467 19.1787C53.9561 19.2275 53.6631 19.2601 53.4678 19.2764H53.4434C53.4108 20.1878 53.3864 21.0911 53.3701 21.9863C53.3538 22.8652 53.3457 23.7604 53.3457 24.6719C53.3457 25.9251 53.3783 27.2598 53.4434 28.6758C53.5247 30.0755 53.6549 31.4102 53.834 32.6797L54.0293 33.7783C54.0944 34.055 54.1514 34.3317 54.2002 34.6084C54.249 34.8688 54.2734 35.1292 54.2734 35.3896ZM68.7266 25.9902C68.7266 27.4062 68.6045 28.8223 68.3604 30.2383C68.1325 31.638 67.6523 32.9645 66.9199 34.2178C66.6921 34.5921 66.4316 34.9583 66.1387 35.3164C65.8457 35.6582 65.5202 35.9674 65.1621 36.2441C64.8203 36.5371 64.4378 36.765 64.0146 36.9277C63.6077 37.1068 63.1764 37.1963 62.7207 37.1963C62.0046 37.1963 61.3779 37.0254 60.8408 36.6836C60.32 36.3581 59.8643 35.9268 59.4736 35.3896C59.0993 34.8363 58.7819 34.2178 58.5215 33.5342C58.2773 32.8343 58.082 32.1263 57.9355 31.4102C57.8053 30.6777 57.7077 29.9697 57.6426 29.2861C57.5938 28.6025 57.5693 28.0003 57.5693 27.4795C57.5693 26.8936 57.5938 26.2507 57.6426 25.5508C57.6914 24.8509 57.7728 24.1348 57.8867 23.4023C58.0169 22.6699 58.1797 21.9456 58.375 21.2295C58.5866 20.5133 58.8551 19.846 59.1807 19.2275C59.5062 18.5928 59.8968 18.0312 60.3525 17.543C60.8083 17.0384 61.3372 16.6396 61.9395 16.3467V16.3711C62.4603 16.0944 62.9811 15.9561 63.502 15.9561C63.8275 15.9561 64.0798 16.0293 64.2588 16.1758C64.4378 16.306 64.5192 16.5339 64.5029 16.8594C65.3981 17.0221 66.1224 17.4535 66.6758 18.1533C67.2292 18.8532 67.6523 19.667 67.9453 20.5947C68.2546 21.5225 68.458 22.4746 68.5557 23.4512C68.6696 24.4277 68.7266 25.2741 68.7266 25.9902ZM63.209 19.8867C62.9323 19.8867 62.6719 19.7809 62.4277 19.5693C62.1185 20.0413 61.8581 20.5866 61.6465 21.2051C61.4349 21.8073 61.264 22.4339 61.1338 23.085C61.0199 23.7197 60.9385 24.3626 60.8896 25.0137C60.8408 25.6647 60.8164 26.2751 60.8164 26.8447C60.8164 27.3167 60.8408 27.9271 60.8896 28.6758C60.9385 29.4082 61.028 30.1488 61.1582 30.8975C61.3047 31.6462 61.5 32.346 61.7441 32.9971C62.0046 33.6481 62.3382 34.1283 62.7451 34.4375C63.2497 34.1445 63.6647 33.6807 63.9902 33.0459C64.332 32.3949 64.6006 31.6868 64.7959 30.9219C64.9912 30.1569 65.1214 29.3838 65.1865 28.6025C65.2679 27.8213 65.3086 27.154 65.3086 26.6006C65.3086 26.1937 65.2842 25.6647 65.2354 25.0137C65.1865 24.3626 65.1051 23.7035 64.9912 23.0361C64.8773 22.3525 64.7145 21.7178 64.5029 21.1318C64.3076 20.5459 64.0553 20.1064 63.7461 19.8135C63.5996 19.8623 63.4206 19.8867 63.209 19.8867ZM92.7256 32.4355C92.7256 32.8099 92.5221 33.168 92.1152 33.5098C91.7246 33.8516 91.2119 34.1689 90.5771 34.4619C89.9587 34.7386 89.2669 34.999 88.502 35.2432C87.7533 35.471 87.0127 35.6663 86.2803 35.8291C85.5641 35.9919 84.9049 36.1139 84.3027 36.1953C83.7005 36.293 83.2529 36.3418 82.96 36.3418C82.4066 36.3418 81.8939 36.2767 81.4219 36.1465C80.9661 36.0163 80.5674 35.821 80.2256 35.5605C79.8838 35.2839 79.6152 34.9339 79.4199 34.5107C79.2409 34.0876 79.1514 33.5749 79.1514 32.9727C79.1514 28.627 79.1676 24.2975 79.2002 19.9844C79.2327 15.6712 79.249 11.3255 79.249 6.94727C79.249 6.26367 79.2327 5.58822 79.2002 4.9209C79.1676 4.25358 79.1514 3.57812 79.1514 2.89453C79.1514 2.73177 79.1595 2.5446 79.1758 2.33301C79.1921 2.10514 79.2327 1.90169 79.2979 1.72266C79.363 1.52734 79.4606 1.36458 79.5908 1.23438C79.721 1.10417 79.9001 1.03906 80.1279 1.03906C80.3558 1.03906 80.5918 1.07161 80.8359 1.13672C81.0964 1.20182 81.3324 1.29948 81.5439 1.42969C81.7718 1.5599 81.9671 1.72266 82.1299 1.91797C82.3089 2.09701 82.4391 2.30859 82.5205 2.55273C82.6019 2.8457 82.6344 3.16309 82.6182 3.50488C82.6182 3.8304 82.6182 4.16406 82.6182 4.50586C82.6995 8.83529 82.7565 13.1322 82.7891 17.3965C82.8379 21.6608 82.8623 25.9577 82.8623 30.2871C82.8623 30.7754 82.8623 31.2637 82.8623 31.752C82.8786 32.2402 82.9111 32.7285 82.96 33.2168C83.3994 33.2005 83.9365 33.1273 84.5713 32.9971C85.2061 32.8669 85.8408 32.7041 86.4756 32.5088C87.1266 32.2972 87.737 32.0612 88.3066 31.8008C88.8763 31.5404 89.3239 31.2637 89.6494 30.9707C89.7959 30.8242 89.9505 30.6777 90.1133 30.5312C90.276 30.3685 90.4795 30.2871 90.7236 30.2871C90.9352 30.2871 91.1549 30.3604 91.3828 30.5068C91.627 30.6533 91.8467 30.8405 92.042 31.0684C92.2373 31.2799 92.4001 31.5078 92.5303 31.752C92.6605 31.9961 92.7256 32.224 92.7256 32.4355ZM96.168 15.4678C96.168 15.7445 96.1029 15.9479 95.9727 16.0781C95.8587 16.1921 95.639 16.249 95.3135 16.249C95.167 16.249 94.9391 16.2327 94.6299 16.2002C94.3206 16.1514 94.0033 16.0863 93.6777 16.0049C93.3685 15.9235 93.0918 15.8096 92.8477 15.6631C92.6198 15.5166 92.5059 15.3376 92.5059 15.126C92.5059 15.0609 92.5303 14.8818 92.5791 14.5889C92.6279 14.2796 92.6849 13.9541 92.75 13.6123C92.8314 13.2705 92.8965 12.9613 92.9453 12.6846C93.0104 12.4079 93.0592 12.2533 93.0918 12.2207V12.2451C93.1732 12.1149 93.2708 12.0335 93.3848 12.001C93.4987 11.9684 93.6126 11.9521 93.7266 11.9521C93.873 11.9521 94.0602 11.9766 94.2881 12.0254C94.5322 12.0579 94.7682 12.1149 94.9961 12.1963C95.2402 12.2614 95.46 12.3509 95.6553 12.4648C95.8506 12.5788 95.9727 12.7008 96.0215 12.8311C96.0703 12.9613 96.0947 13.1403 96.0947 13.3682C96.111 13.5798 96.111 13.7751 96.0947 13.9541C96.0947 14.0192 96.0866 14.1006 96.0703 14.1982C96.0703 14.2796 96.0703 14.3447 96.0703 14.3936C96.0703 14.4749 96.0703 14.5563 96.0703 14.6377C96.0866 14.7191 96.1029 14.8005 96.1191 14.8818C96.1354 14.9632 96.1436 15.0527 96.1436 15.1504C96.1598 15.248 96.168 15.3538 96.168 15.4678ZM97.0713 34.9258C97.0713 35.3001 96.9818 35.5687 96.8027 35.7314C96.64 35.8779 96.3714 35.9512 95.9971 35.9512C95.8018 35.9512 95.582 35.9268 95.3379 35.8779C95.11 35.8291 94.8822 35.764 94.6543 35.6826C94.4264 35.585 94.2148 35.471 94.0195 35.3408C93.8242 35.2106 93.6777 35.0641 93.5801 34.9014C93.515 34.8037 93.458 34.5026 93.4092 33.998C93.3604 33.4935 93.3197 32.8669 93.2871 32.1182C93.2708 31.3695 93.2464 30.5312 93.2139 29.6035C93.1976 28.6758 93.1813 27.7399 93.165 26.7959C93.165 25.8519 93.165 24.9323 93.165 24.0371C93.165 23.1419 93.165 22.3607 93.165 21.6934V19.8135C93.165 19.6507 93.165 19.488 93.165 19.3252C93.1813 19.1624 93.2139 19.0241 93.2627 18.9102C93.3278 18.7799 93.4173 18.6742 93.5312 18.5928C93.6615 18.5114 93.8405 18.4707 94.0684 18.4707C94.7845 18.4707 95.3053 18.6742 95.6309 19.0811C95.9727 19.4717 96.1842 20.0007 96.2656 20.668C96.347 21.6608 96.404 22.6536 96.4365 23.6465C96.4854 24.623 96.526 25.6159 96.5586 26.625C96.5911 27.5365 96.6156 28.4398 96.6318 29.335C96.6644 30.2139 96.7214 31.0928 96.8027 31.9717C96.819 32.1507 96.8353 32.3216 96.8516 32.4844C96.8678 32.6471 96.8923 32.8099 96.9248 32.9727C96.9574 33.2982 96.9899 33.6237 97.0225 33.9492C97.055 34.2585 97.0713 34.584 97.0713 34.9258ZM111.695 29.9453C111.695 30.1081 111.646 30.3034 111.549 30.5312C111.467 30.7428 111.354 30.9707 111.207 31.2148C111.077 31.4427 110.93 31.6787 110.768 31.9229C110.605 32.167 110.45 32.3867 110.304 32.582L109.938 33.0947L109.571 33.7295L109.254 34.3154C109.27 34.641 109.295 34.9909 109.327 35.3652C109.36 35.7396 109.392 36.0977 109.425 36.4395C109.604 38.1159 109.758 39.8249 109.889 41.5664C110.035 43.3079 110.108 45.0169 110.108 46.6934C110.108 47.5885 110.035 48.4919 109.889 49.4033C109.742 50.3311 109.465 51.1611 109.059 51.8936C108.668 52.6423 108.123 53.2526 107.423 53.7246C106.723 54.1966 105.828 54.4326 104.737 54.4326C103.989 54.4326 103.354 54.2943 102.833 54.0176C102.312 53.7409 101.889 53.3665 101.563 52.8945C101.254 52.4388 101.026 51.9017 100.88 51.2832C100.733 50.6647 100.66 50.0218 100.66 49.3545C100.66 48.0361 100.815 46.7015 101.124 45.3506C101.433 43.9997 101.832 42.665 102.32 41.3467C102.825 40.0283 103.395 38.7344 104.029 37.4648C104.664 36.2116 105.307 35.0072 105.958 33.8516C105.958 33.819 105.958 33.7865 105.958 33.7539C105.958 33.7051 105.95 33.6318 105.934 33.5342C105.722 33.9248 105.478 34.3317 105.201 34.7549C104.941 35.1618 104.64 35.528 104.298 35.8535C103.972 36.179 103.606 36.4476 103.199 36.6592C102.809 36.8708 102.369 36.9766 101.881 36.9766C101.197 36.9766 100.628 36.8138 100.172 36.4883C99.7161 36.1628 99.3499 35.7477 99.0732 35.2432C98.8128 34.7386 98.6257 34.1852 98.5117 33.583C98.3978 32.9808 98.3408 32.4111 98.3408 31.874C98.3408 31.2555 98.3734 30.6452 98.4385 30.043C98.5199 29.4408 98.6094 28.8548 98.707 28.2852C98.8698 27.3737 99.0732 26.389 99.3174 25.3311C99.5778 24.2568 99.8952 23.1989 100.27 22.1572C100.644 21.0993 101.075 20.1064 101.563 19.1787C102.068 18.251 102.654 17.4616 103.321 16.8105L103.517 16.6396C103.728 16.4281 103.972 16.2246 104.249 16.0293C104.526 15.8177 104.811 15.7119 105.104 15.7119C105.283 15.7119 105.437 15.7607 105.567 15.8584C105.714 15.9561 105.836 16.0863 105.934 16.249C106.031 16.3955 106.104 16.5583 106.153 16.7373C106.218 16.9163 106.251 17.0872 106.251 17.25C106.251 17.4453 106.178 17.6569 106.031 17.8848H106.08C107.073 17.8848 107.74 18.3405 108.082 19.252C108.261 19.4147 108.391 19.61 108.473 19.8379C108.57 20.0658 108.619 20.3099 108.619 20.5703C108.619 20.7005 108.611 20.847 108.595 21.0098C108.578 21.1562 108.554 21.2946 108.521 21.4248C108.489 21.5713 108.465 21.7096 108.448 21.8398C108.432 21.9701 108.424 22.0921 108.424 22.2061C108.424 22.5804 108.432 23.0443 108.448 23.5977C108.465 24.151 108.489 24.7288 108.521 25.3311C108.554 25.9333 108.587 26.5273 108.619 27.1133C108.668 27.6829 108.709 28.1794 108.741 28.6025C108.855 28.4561 108.985 28.3258 109.132 28.2119C109.295 28.098 109.482 28.041 109.693 28.041C109.872 28.041 110.076 28.1061 110.304 28.2363C110.548 28.3665 110.768 28.5293 110.963 28.7246C111.174 28.9199 111.345 29.1315 111.476 29.3594C111.622 29.571 111.695 29.7663 111.695 29.9453ZM104.981 19.8867C104.981 19.7891 104.981 19.6833 104.981 19.5693C104.998 19.4554 105.022 19.3333 105.055 19.2031L104.884 19.4229C104.754 19.5693 104.632 19.7077 104.518 19.8379C104.404 19.9681 104.298 20.1064 104.2 20.2529C103.777 20.8714 103.403 21.6771 103.077 22.6699C102.768 23.6465 102.507 24.68 102.296 25.7705C102.084 26.8447 101.922 27.9027 101.808 28.9443C101.71 29.986 101.661 30.8812 101.661 31.6299C101.661 32.0042 101.669 32.3786 101.686 32.7529C101.702 33.1273 101.783 33.4935 101.93 33.8516C102.158 33.6074 102.345 33.347 102.491 33.0703C102.638 32.7773 102.776 32.4762 102.906 32.167C103.264 31.3695 103.574 30.4417 103.834 29.3838C104.094 28.3258 104.306 27.2354 104.469 26.1123C104.632 24.9893 104.754 23.8906 104.835 22.8164C104.916 21.7259 104.965 20.7493 104.981 19.8867ZM106.837 45.9609C106.837 44.8542 106.812 43.8125 106.764 42.8359C106.715 41.8757 106.642 40.8421 106.544 39.7354C106.251 40.4352 105.95 41.1839 105.641 41.9814C105.348 42.7952 105.087 43.609 104.859 44.4229C104.632 45.2529 104.444 46.0749 104.298 46.8887C104.151 47.7025 104.078 48.4756 104.078 49.208V49.3789C104.078 49.7533 104.103 50.152 104.151 50.5752C104.2 51.0146 104.355 51.3727 104.615 51.6494H104.884C105.209 51.6494 105.478 51.5355 105.689 51.3076C105.917 51.096 106.104 50.8193 106.251 50.4775C106.397 50.1357 106.511 49.7533 106.593 49.3301C106.674 48.9069 106.731 48.4837 106.764 48.0605C106.796 47.6374 106.812 47.2386 106.812 46.8643C106.829 46.4899 106.837 46.1888 106.837 45.9609ZM123.976 34.6816C123.976 35.0072 123.87 35.2432 123.658 35.3896C123.447 35.5361 123.186 35.6094 122.877 35.6094C122.682 35.6094 122.478 35.5931 122.267 35.5605C122.055 35.5117 121.852 35.4629 121.656 35.4141C121.314 35.3164 121.046 35.1943 120.851 35.0479C120.672 34.9014 120.533 34.7386 120.436 34.5596C120.338 34.3643 120.273 34.1527 120.24 33.9248C120.224 33.6969 120.208 33.4447 120.191 33.168C120.191 33.0866 120.183 33.0133 120.167 32.9482C120.167 32.8831 120.167 32.818 120.167 32.7529C120.118 31.8252 120.069 30.873 120.021 29.8965C119.988 28.9199 119.972 27.9678 119.972 27.04C119.972 26.568 119.972 26.096 119.972 25.624C119.988 25.152 120.004 24.68 120.021 24.208C120.037 23.736 120.045 23.2721 120.045 22.8164C120.061 22.3444 120.069 21.8724 120.069 21.4004C120.069 21.3027 120.061 21.2132 120.045 21.1318C120.045 21.0342 120.037 20.9365 120.021 20.8389C119.597 21.4574 119.223 22.1491 118.897 22.9141C118.588 23.6628 118.312 24.444 118.067 25.2578C117.823 26.0553 117.612 26.861 117.433 27.6748C117.27 28.4723 117.132 29.2373 117.018 29.9697L116.944 30.4824C116.863 31.0521 116.782 31.638 116.7 32.2402C116.619 32.8262 116.578 33.4121 116.578 33.998C116.578 34.2422 116.619 34.5107 116.7 34.8037C116.733 34.9339 116.757 35.0641 116.773 35.1943C116.806 35.3083 116.822 35.4548 116.822 35.6338C116.822 36.0244 116.725 36.2848 116.529 36.415C116.334 36.5615 116.074 36.6348 115.748 36.6348C115.553 36.6348 115.333 36.6185 115.089 36.5859C114.861 36.5534 114.633 36.4964 114.405 36.415C114.194 36.3499 113.99 36.2604 113.795 36.1465C113.6 36.0326 113.445 35.8861 113.331 35.707C113.233 35.4954 113.136 34.9339 113.038 34.0225C112.957 33.111 112.875 31.9798 112.794 30.6289C112.729 29.278 112.664 27.7643 112.599 26.0879C112.534 24.3952 112.468 22.6618 112.403 20.8877C112.354 19.1136 112.306 17.3558 112.257 15.6143C112.224 13.8727 112.192 12.2695 112.159 10.8047C112.143 9.33984 112.127 8.07031 112.11 6.99609C112.094 5.9056 112.086 5.14062 112.086 4.70117C112.086 4.37565 112.127 4.08268 112.208 3.82227C112.306 3.54557 112.566 3.40723 112.989 3.40723C113.429 3.40723 113.844 3.51302 114.234 3.72461C114.625 3.91992 114.91 4.22917 115.089 4.65234C115.121 4.71745 115.154 4.986 115.187 5.45801C115.219 5.91374 115.252 6.50781 115.284 7.24023C115.317 7.95638 115.349 8.78646 115.382 9.73047C115.414 10.6582 115.447 11.6266 115.479 12.6357C115.512 13.6286 115.545 14.6296 115.577 15.6387C115.61 16.6478 115.642 17.5918 115.675 18.4707L115.797 22.084C115.992 21.5794 116.236 21.0505 116.529 20.4971C116.822 19.9437 117.156 19.4391 117.53 18.9834C117.921 18.5277 118.352 18.1533 118.824 17.8604C119.312 17.5674 119.85 17.4209 120.436 17.4209C121.152 17.4209 121.713 17.6081 122.12 17.9824C122.527 18.3568 122.828 18.8206 123.023 19.374C123.235 19.9274 123.365 20.5215 123.414 21.1562C123.463 21.791 123.487 22.3688 123.487 22.8896C123.487 23.2152 123.479 23.5326 123.463 23.8418C123.463 24.151 123.455 24.4603 123.438 24.7695C123.422 25.0951 123.406 25.4206 123.39 25.7461C123.39 26.0553 123.39 26.3727 123.39 26.6982C123.39 27.8213 123.414 28.9769 123.463 30.165C123.512 31.3369 123.634 32.4925 123.829 33.6318L123.878 33.9736C123.91 34.0713 123.935 34.1852 123.951 34.3154C123.967 34.4456 123.976 34.5677 123.976 34.6816ZM131.471 35.3896C131.471 35.5687 131.43 35.7233 131.349 35.8535C131.267 35.9674 131.161 36.057 131.031 36.1221C130.917 36.1872 130.787 36.2279 130.641 36.2441C130.51 36.2767 130.38 36.293 130.25 36.293C130.071 36.293 129.859 36.2686 129.615 36.2197C129.387 36.1872 129.16 36.1302 128.932 36.0488C128.704 35.9674 128.492 35.8698 128.297 35.7559C128.118 35.6257 127.979 35.471 127.882 35.292C127.784 35.1292 127.695 34.8281 127.613 34.3887C127.548 33.9329 127.491 33.4121 127.442 32.8262C127.394 32.224 127.353 31.5892 127.32 30.9219C127.288 30.2383 127.255 29.5872 127.223 28.9688C127.206 28.3503 127.19 27.7969 127.174 27.3086C127.174 26.804 127.174 26.4297 127.174 26.1855C127.174 25.0462 127.19 23.9476 127.223 22.8896C127.271 21.8154 127.32 20.7168 127.369 19.5938C127.288 19.5938 127.206 19.6019 127.125 19.6182C127.044 19.6344 126.962 19.6426 126.881 19.6426C126.669 19.6751 126.45 19.6995 126.222 19.7158C126.01 19.7321 125.79 19.7402 125.562 19.7402C125.286 19.7402 125.042 19.6914 124.83 19.5938C124.618 19.4961 124.513 19.2764 124.513 18.9346C124.513 18.5277 124.602 18.2021 124.781 17.958C124.96 17.7139 125.188 17.5267 125.465 17.3965C125.742 17.25 126.043 17.1523 126.368 17.1035C126.694 17.0384 127.011 16.9896 127.32 16.957C127.369 16.957 127.402 16.957 127.418 16.957C127.434 16.9408 127.467 16.9326 127.516 16.9326C127.532 16.7373 127.548 16.5013 127.564 16.2246C127.581 15.9316 127.597 15.6143 127.613 15.2725C127.63 14.7354 127.654 14.1657 127.687 13.5635C127.719 12.945 127.752 12.359 127.784 11.8057C127.817 11.236 127.857 10.7396 127.906 10.3164C127.955 9.87695 128.004 9.56771 128.053 9.38867C128.134 9.17708 128.224 9.00618 128.321 8.87598C128.435 8.74577 128.639 8.68066 128.932 8.68066C129.583 8.68066 130.087 8.89225 130.445 9.31543C130.803 9.73861 130.982 10.2594 130.982 10.8779C130.982 11.5941 130.958 12.3102 130.909 13.0264C130.877 13.7425 130.844 14.4668 130.812 15.1992L130.738 16.4443C131.145 16.3955 131.552 16.3223 131.959 16.2246C132.35 16.1432 132.74 16.07 133.131 16.0049C133.538 15.9398 133.928 15.9072 134.303 15.9072C134.628 15.9072 134.881 15.9967 135.06 16.1758C135.239 16.3385 135.328 16.5827 135.328 16.9082C135.328 17.2663 135.263 17.6162 135.133 17.958C135.003 18.2998 134.775 18.5602 134.449 18.7393H134.474C134.409 18.7718 134.213 18.8206 133.888 18.8857C133.562 18.9346 133.188 18.9834 132.765 19.0322C132.358 19.0811 131.951 19.1299 131.544 19.1787C131.153 19.2275 130.86 19.2601 130.665 19.2764H130.641C130.608 20.1878 130.584 21.0911 130.567 21.9863C130.551 22.8652 130.543 23.7604 130.543 24.6719C130.543 25.9251 130.576 27.2598 130.641 28.6758C130.722 30.0755 130.852 31.4102 131.031 32.6797L131.227 33.7783C131.292 34.055 131.349 34.3317 131.397 34.6084C131.446 34.8688 131.471 35.1292 131.471 35.3896ZM163.697 36.0488C163.697 36.3743 163.616 36.6348 163.453 36.8301C163.307 37.0254 163.046 37.123 162.672 37.123C162.477 37.123 162.273 37.0986 162.062 37.0498C161.85 37.0173 161.646 36.9603 161.451 36.8789C161.044 36.765 160.719 36.6592 160.475 36.5615C160.247 36.4639 160.068 36.3337 159.938 36.1709C159.824 36.0244 159.75 35.8291 159.718 35.585C159.685 35.3408 159.661 35.0072 159.645 34.584C159.514 31.2474 159.368 27.9434 159.205 24.6719C159.059 21.3841 158.814 18.0801 158.473 14.7598C158.245 15.8828 158.025 17.0059 157.813 18.1289C157.602 19.252 157.382 20.3913 157.154 21.5469C156.926 22.7513 156.707 23.9801 156.495 25.2334C156.3 26.4867 155.982 27.6992 155.543 28.8711C155.364 29.3431 155.144 29.7174 154.884 29.9941C154.623 30.2546 154.225 30.3848 153.688 30.3848C153.297 30.3848 152.979 30.3197 152.735 30.1895C152.491 30.043 152.255 29.8314 152.027 29.5547C151.816 29.3268 151.588 28.8874 151.344 28.2363C151.1 27.5853 150.839 26.8285 150.562 25.9658C150.302 25.0869 150.042 24.151 149.781 23.1582C149.521 22.1654 149.277 21.2132 149.049 20.3018C148.821 19.374 148.618 18.5277 148.438 17.7627C148.259 16.9977 148.121 16.4199 148.023 16.0293V19.3496C148.023 21.5143 148.064 23.6709 148.146 25.8193C148.227 27.9678 148.365 30.1081 148.561 32.2402C148.609 32.7122 148.674 33.1842 148.756 33.6562C148.854 34.1283 148.902 34.6003 148.902 35.0723C148.902 35.4954 148.756 35.7721 148.463 35.9023C148.186 36.0326 147.877 36.0977 147.535 36.0977C146.607 36.0977 145.891 35.9023 145.387 35.5117C144.898 35.1048 144.654 34.4212 144.654 33.4609C144.654 31.4915 144.605 29.5384 144.508 27.6016C144.41 25.6647 144.361 23.7116 144.361 21.7422C144.361 21.4655 144.361 20.9854 144.361 20.3018C144.378 19.6182 144.394 18.8125 144.41 17.8848C144.426 16.9408 144.443 15.9235 144.459 14.833C144.492 13.7262 144.524 12.6113 144.557 11.4883C144.589 10.3652 144.622 9.27474 144.654 8.2168C144.687 7.14258 144.719 6.18229 144.752 5.33594C144.785 4.48958 144.817 3.78971 144.85 3.23633C144.898 2.66667 144.947 2.32487 144.996 2.21094C145.077 1.98307 145.167 1.83659 145.265 1.77148C145.379 1.70638 145.549 1.67383 145.777 1.67383C146.396 1.67383 146.909 1.81217 147.315 2.08887C147.739 2.34928 148.023 2.79688 148.17 3.43164C148.398 3.77344 148.658 4.40007 148.951 5.31152C149.244 6.20671 149.553 7.25651 149.879 8.46094C150.204 9.66536 150.53 10.9674 150.855 12.3672C151.197 13.7507 151.515 15.0853 151.808 16.3711C152.117 17.6569 152.394 18.8369 152.638 19.9111C152.898 20.9854 153.102 21.8073 153.248 22.377C153.72 19.5775 154.2 16.7943 154.688 14.0273C155.177 11.2604 155.641 8.47721 156.08 5.67773C156.161 5.20573 156.243 4.74186 156.324 4.28613C156.422 3.8304 156.471 3.36654 156.471 2.89453C156.471 2.60156 156.43 2.33301 156.349 2.08887C156.267 1.82845 156.227 1.5599 156.227 1.2832C156.227 0.941406 156.332 0.737956 156.544 0.672852C156.772 0.591471 157.024 0.550781 157.301 0.550781C157.561 0.550781 157.87 0.591471 158.229 0.672852C158.587 0.754232 158.928 0.876302 159.254 1.03906C159.596 1.20182 159.881 1.40527 160.108 1.64941C160.353 1.89355 160.475 2.17839 160.475 2.50391C160.475 3.07357 160.426 3.67578 160.328 4.31055C160.914 7.0612 161.402 9.81999 161.793 12.5869C162.184 15.3376 162.477 18.1126 162.672 20.9121C162.867 23.321 163.022 25.7135 163.136 28.0898C163.266 30.4661 163.421 32.8424 163.6 35.2188C163.632 35.3652 163.657 35.5036 163.673 35.6338C163.689 35.764 163.697 35.9023 163.697 36.0488ZM176.588 25.9902C176.588 27.4062 176.466 28.8223 176.222 30.2383C175.994 31.638 175.514 32.9645 174.781 34.2178C174.553 34.5921 174.293 34.9583 174 35.3164C173.707 35.6582 173.382 35.9674 173.023 36.2441C172.682 36.5371 172.299 36.765 171.876 36.9277C171.469 37.1068 171.038 37.1963 170.582 37.1963C169.866 37.1963 169.239 37.0254 168.702 36.6836C168.181 36.3581 167.726 35.9268 167.335 35.3896C166.961 34.8363 166.643 34.2178 166.383 33.5342C166.139 32.8343 165.943 32.1263 165.797 31.4102C165.667 30.6777 165.569 29.9697 165.504 29.2861C165.455 28.6025 165.431 28.0003 165.431 27.4795C165.431 26.8936 165.455 26.2507 165.504 25.5508C165.553 24.8509 165.634 24.1348 165.748 23.4023C165.878 22.6699 166.041 21.9456 166.236 21.2295C166.448 20.5133 166.716 19.846 167.042 19.2275C167.368 18.5928 167.758 18.0312 168.214 17.543C168.67 17.0384 169.199 16.6396 169.801 16.3467V16.3711C170.322 16.0944 170.842 15.9561 171.363 15.9561C171.689 15.9561 171.941 16.0293 172.12 16.1758C172.299 16.306 172.381 16.5339 172.364 16.8594C173.259 17.0221 173.984 17.4535 174.537 18.1533C175.09 18.8532 175.514 19.667 175.807 20.5947C176.116 21.5225 176.319 22.4746 176.417 23.4512C176.531 24.4277 176.588 25.2741 176.588 25.9902ZM171.07 19.8867C170.794 19.8867 170.533 19.7809 170.289 19.5693C169.98 20.0413 169.719 20.5866 169.508 21.2051C169.296 21.8073 169.125 22.4339 168.995 23.085C168.881 23.7197 168.8 24.3626 168.751 25.0137C168.702 25.6647 168.678 26.2751 168.678 26.8447C168.678 27.3167 168.702 27.9271 168.751 28.6758C168.8 29.4082 168.889 30.1488 169.02 30.8975C169.166 31.6462 169.361 32.346 169.605 32.9971C169.866 33.6481 170.2 34.1283 170.606 34.4375C171.111 34.1445 171.526 33.6807 171.852 33.0459C172.193 32.3949 172.462 31.6868 172.657 30.9219C172.853 30.1569 172.983 29.3838 173.048 28.6025C173.129 27.8213 173.17 27.154 173.17 26.6006C173.17 26.1937 173.146 25.6647 173.097 25.0137C173.048 24.3626 172.966 23.7035 172.853 23.0361C172.739 22.3525 172.576 21.7178 172.364 21.1318C172.169 20.5459 171.917 20.1064 171.607 19.8135C171.461 19.8623 171.282 19.8867 171.07 19.8867ZM189.283 35.2432C189.283 35.4222 189.243 35.5768 189.161 35.707C189.08 35.821 188.974 35.9186 188.844 36C188.73 36.0651 188.6 36.1139 188.453 36.1465C188.323 36.179 188.193 36.1953 188.062 36.1953C187.867 36.1953 187.656 36.1709 187.428 36.1221C187.2 36.0732 186.972 36.0081 186.744 35.9268C186.516 35.8291 186.305 35.7152 186.109 35.585C185.93 35.4385 185.792 35.2757 185.694 35.0967C185.597 34.9176 185.523 34.6979 185.475 34.4375C185.442 34.1608 185.41 33.8841 185.377 33.6074C185.214 33.998 185.019 34.3805 184.791 34.7549C184.579 35.1292 184.319 35.4629 184.01 35.7559C183.701 36.0326 183.351 36.2523 182.96 36.415C182.586 36.5941 182.162 36.6836 181.69 36.6836C180.86 36.6836 180.185 36.4883 179.664 36.0977C179.16 35.707 178.761 35.2188 178.468 34.6328C178.191 34.0306 178.004 33.3796 177.906 32.6797C177.825 31.9635 177.784 31.2799 177.784 30.6289C177.784 30.0918 177.809 29.4814 177.857 28.7979C177.906 28.1143 177.971 27.4144 178.053 26.6982C178.134 25.9821 178.232 25.2904 178.346 24.623C178.46 23.9395 178.582 23.3372 178.712 22.8164C178.875 22.2142 179.07 21.555 179.298 20.8389C179.542 20.1064 179.843 19.431 180.201 18.8125C180.576 18.1777 181.031 17.6406 181.568 17.2012C182.105 16.7617 182.748 16.5176 183.497 16.4688C183.448 15.1504 183.375 13.9378 183.277 12.8311C183.196 11.708 183.106 10.5605 183.009 9.38867L182.765 6.67871L182.667 5.70215C182.634 5.44173 182.61 5.18132 182.594 4.9209C182.577 4.64421 182.569 4.37565 182.569 4.11523C182.569 3.74089 182.667 3.48047 182.862 3.33398C183.074 3.1875 183.342 3.11426 183.668 3.11426C184.384 3.11426 184.929 3.22005 185.304 3.43164C185.678 3.64323 185.938 3.92806 186.085 4.28613C186.248 4.64421 186.337 5.06738 186.354 5.55566C186.37 6.02767 186.378 6.54036 186.378 7.09375C186.378 7.45182 186.419 7.85872 186.5 8.31445L186.622 9.21777L186.817 11.708C186.85 12.0986 186.882 12.4893 186.915 12.8799C186.948 13.2705 186.98 13.6611 187.013 14.0518L187.525 19.3008L188.502 29.1152L188.575 30.0186C188.64 30.6859 188.697 31.3776 188.746 32.0938C188.811 32.8099 188.925 33.5179 189.088 34.2178C189.137 34.3968 189.177 34.5677 189.21 34.7305C189.259 34.8932 189.283 35.0641 189.283 35.2432ZM183.595 20.9609C183.595 20.7819 183.587 20.5866 183.57 20.375C183.57 20.1471 183.57 19.9355 183.57 19.7402V19.0811C183.456 19.2438 183.31 19.4717 183.131 19.7646C182.952 20.0413 182.813 20.2936 182.716 20.5215C182.455 21.0911 182.219 21.8236 182.008 22.7188C181.796 23.5977 181.609 24.5254 181.446 25.502C181.3 26.4622 181.186 27.4062 181.104 28.334C181.023 29.2454 180.982 30.0104 180.982 30.6289C180.982 30.8568 180.982 31.1172 180.982 31.4102C180.999 31.7031 181.031 32.0042 181.08 32.3135C181.129 32.6064 181.202 32.8913 181.3 33.168C181.397 33.4447 181.528 33.6725 181.69 33.8516C181.935 33.5423 182.154 33.0703 182.35 32.4355C182.545 31.7845 182.708 31.0521 182.838 30.2383C182.984 29.4082 183.106 28.5374 183.204 27.626C183.302 26.7145 183.375 25.8356 183.424 24.9893C183.489 24.1266 183.53 23.3454 183.546 22.6455C183.578 21.9294 183.595 21.3678 183.595 20.9609ZM200.465 31.5322C200.465 32.0205 200.326 32.5251 200.05 33.0459C199.789 33.5667 199.448 34.0469 199.024 34.4863C198.601 34.9095 198.113 35.2594 197.56 35.5361C197.022 35.8128 196.485 35.9512 195.948 35.9512C195.183 35.9512 194.524 35.8047 193.971 35.5117C193.417 35.2025 192.937 34.7956 192.53 34.291C192.123 33.7702 191.79 33.1842 191.529 32.5332C191.285 31.8822 191.09 31.2148 190.943 30.5312C190.797 29.8314 190.691 29.1396 190.626 28.4561C190.577 27.7562 190.553 27.1214 190.553 26.5518C190.553 26.0635 190.577 25.4857 190.626 24.8184C190.691 24.151 190.789 23.4593 190.919 22.7432C191.065 22.027 191.261 21.319 191.505 20.6191C191.749 19.9193 192.05 19.2926 192.408 18.7393C192.783 18.1859 193.222 17.7383 193.727 17.3965C194.247 17.0547 194.841 16.8838 195.509 16.8838C196.03 16.8838 196.493 16.9896 196.9 17.2012C197.324 17.4128 197.674 17.6976 197.95 18.0557C198.243 18.3975 198.463 18.7962 198.609 19.252C198.772 19.7077 198.854 20.1797 198.854 20.668C198.854 21.3027 198.707 21.9945 198.414 22.7432C198.121 23.4919 197.739 24.2161 197.267 24.916C196.811 25.6159 196.29 26.2507 195.704 26.8203C195.134 27.3737 194.565 27.7969 193.995 28.0898C194.028 28.3828 194.093 28.8141 194.19 29.3838C194.288 29.9372 194.418 30.4906 194.581 31.0439C194.76 31.5973 194.964 32.0775 195.191 32.4844C195.436 32.8913 195.72 33.0947 196.046 33.0947C196.209 33.0947 196.347 33.0459 196.461 32.9482C196.591 32.8506 196.705 32.7204 196.803 32.5576C196.9 32.3949 196.982 32.2158 197.047 32.0205C197.128 31.8252 197.201 31.638 197.267 31.459L197.413 31.1172C197.446 31.0684 197.462 31.0358 197.462 31.0195C197.478 31.0033 197.494 30.9788 197.511 30.9463C197.625 30.7347 197.73 30.5394 197.828 30.3604C197.942 30.1813 198.097 30.0267 198.292 29.8965H198.268C198.333 29.8314 198.398 29.7988 198.463 29.7988C198.544 29.7826 198.618 29.7744 198.683 29.7744C198.862 29.7744 199.057 29.8314 199.269 29.9453C199.48 30.0592 199.675 30.2057 199.854 30.3848C200.034 30.5475 200.18 30.7347 200.294 30.9463C200.408 31.1416 200.465 31.3369 200.465 31.5322ZM195.631 20.7656C195.631 20.6029 195.623 20.432 195.606 20.2529C195.59 20.0739 195.549 19.9193 195.484 19.7891C195.257 20.0658 195.053 20.3994 194.874 20.79C194.711 21.1644 194.573 21.5632 194.459 21.9863C194.345 22.3932 194.247 22.8083 194.166 23.2314C194.101 23.6546 194.052 24.0452 194.02 24.4033C194.443 23.8988 194.817 23.3291 195.143 22.6943C195.468 22.0433 195.631 21.4004 195.631 20.7656Z" fill="black"/>
</svg>
